<?xml version="1.0" encoding="utf-8" ?>
<svg baseProfile="full" height="1024" version="1.1" viewBox="0 0 1536 1024" width="1536" xmlns="http://www.w3.org/2000/svg" xmlns:ev="http://www.w3.org/2001/xml-events" xmlns:xlink="http://www.w3.org/1999/xlink"><defs /><rect fill="#FFFFFF" height="1024" width="1536" x="0" y="0" /><path d="M 1089,538 L 1089,539 L 1089,540 L 1089,541 L 1089,542 L 1089,543 L 1089,544 L 1089,545 L 1089,546 L 1089,547 L 1089,548 L 1089,549 L 1089,550 L 1089,551 L 1089,552 L 1089,553 L 1089,554 L 1089,555 L 1089,556 L 1089,557 L 1089,558 L 1089,559 L 1089,560 L 1089,561 L 1089,562 L 1089,563 L 1089,564 L 1089,565 L 1089,566 L 1089,567 L 1089,568 L 1089,569 L 1089,570 L 1089,571 L 1089,572 L 1089,573 L 1089,574 L 1089,575 L 1089,576 L 1089,577 L 1089,578 L 1089,579 L 1089,580 L 1089,581 L 1089,582 L 1089,583 L 1089,584 L 1089,585 L 1089,586 L 1089,587 L 1089,588 L 1089,589 L 1089,590 L 1089,591 L 1089,592 L 1089,593 L 1089,594 L 1089,595 L 1089,596 L 1089,597 L 1089,598 L 1090,598 L 1091,598 L 1092,598 L 1093,598 L 1094,598 L 1095,598 L 1096,598 L 1097,598 L 1098,598 L 1099,598 L 1100,598 L 1101,598 L 1101,597 L 1101,596 L 1101,595 L 1101,594 L 1101,593 L 1101,592 L 1101,591 L 1101,590 L 1101,589 L 1101,588 L 1101,587 L 1101,586 L 1101,585 L 1101,584 L 1101,583 L 1101,582 L 1101,581 L 1101,580 L 1101,579 L 1101,578 L 1101,577 L 1101,576 L 1101,575 L 1101,574 L 1101,573 L 1101,572 L 1101,571 L 1101,570 L 1101,569 L 1101,568 L 1101,567 L 1101,566 L 1101,565 L 1101,564 L 1101,563 L 1101,562 L 1102,561 L 1103,562 L 1104,563 L 1104,564 L 1105,565 L 1106,566 L 1107,567 L 1107,568 L 1108,569 L 1109,570 L 1110,571 L 1110,572 L 1111,573 L 1112,574 L 1113,575 L 1113,576 L 1114,577 L 1115,578 L 1116,579 L 1116,580 L 1117,581 L 1118,582 L 1118,583 L 1119,584 L 1119,585 L 1120,585 L 1121,586 L 1121,587 L 1122,588 L 1123,589 L 1124,590 L 1124,591 L 1125,592 L 1126,593 L 1126,594 L 1127,595 L 1128,596 L 1128,597 L 1129,598 L 1130,598 L 1131,598 L 1132,598 L 1133,598 L 1134,598 L 1135,598 L 1136,598 L 1137,598 L 1138,598 L 1139,598 L 1140,598 L 1141,598 L 1141,597 L 1141,596 L 1141,595 L 1141,594 L 1141,593 L 1141,592 L 1141,591 L 1141,590 L 1141,589 L 1141,588 L 1141,587 L 1141,586 L 1141,585 L 1141,584 L 1141,583 L 1141,582 L 1141,581 L 1141,580 L 1141,579 L 1141,578 L 1141,577 L 1141,576 L 1141,575 L 1141,574 L 1141,573 L 1141,572 L 1141,571 L 1141,570 L 1141,569 L 1141,568 L 1141,567 L 1141,566 L 1141,565 L 1141,564 L 1141,563 L 1141,562 L 1141,561 L 1141,560 L 1141,559 L 1141,558 L 1141,557 L 1141,556 L 1141,555 L 1141,554 L 1141,553 L 1141,552 L 1141,551 L 1141,550 L 1141,549 L 1141,548 L 1141,547 L 1141,546 L 1141,545 L 1141,544 L 1141,543 L 1141,542 L 1141,541 L 1141,540 L 1141,539 L 1141,538 L 1140,538 L 1139,538 L 1138,538 L 1137,538 L 1136,538 L 1135,538 L 1134,538 L 1133,538 L 1132,538 L 1131,538 L 1130,538 L 1129,538 L 1129,539 L 1129,540 L 1129,541 L 1129,542 L 1129,543 L 1129,544 L 1129,545 L 1129,546 L 1129,547 L 1129,548 L 1129,549 L 1129,550 L 1129,551 L 1129,552 L 1129,553 L 1129,554 L 1129,555 L 1129,556 L 1129,557 L 1129,558 L 1129,559 L 1129,560 L 1129,561 L 1129,562 L 1129,563 L 1129,564 L 1129,565 L 1129,566 L 1129,567 L 1129,568 L 1129,569 L 1129,570 L 1129,571 L 1129,572 L 1129,573 L 1129,574 L 1129,575 L 1128,576 L 1127,575 L 1127,574 L 1126,573 L 1125,572 L 1124,571 L 1124,570 L 1123,569 L 1122,568 L 1122,567 L 1121,566 L 1120,565 L 1119,564 L 1119,563 L 1118,562 L 1117,561 L 1116,560 L 1116,559 L 1115,558 L 1114,557 L 1114,556 L 1113,555 L 1112,554 L 1111,553 L 1111,552 L 1110,551 L 1109,550 L 1109,549 L 1108,548 L 1107,547 L 1106,546 L 1106,545 L 1106,544 L 1105,544 L 1104,543 L 1103,542 L 1103,541 L 1102,540 L 1101,539 L 1101,538 L 1100,538 L 1099,538 L 1098,538 L 1097,538 L 1096,538 L 1095,538 L 1094,538 L 1093,538 L 1092,538 L 1091,538 L 1090,538 Z M 1053,538 L 1053,539 L 1053,540 L 1053,541 L 1053,542 L 1053,543 L 1053,544 L 1053,545 L 1053,546 L 1053,547 L 1053,548 L 1053,549 L 1053,550 L 1053,551 L 1053,552 L 1053,553 L 1053,554 L 1053,555 L 1053,556 L 1053,557 L 1053,558 L 1053,559 L 1053,560 L 1053,561 L 1053,562 L 1053,563 L 1053,564 L 1053,565 L 1053,566 L 1053,567 L 1053,568 L 1053,569 L 1053,570 L 1053,571 L 1053,572 L 1053,573 L 1053,574 L 1053,575 L 1053,576 L 1053,577 L 1053,578 L 1053,579 L 1053,580 L 1053,581 L 1053,582 L 1053,583 L 1053,584 L 1053,585 L 1053,586 L 1053,587 L 1053,588 L 1053,589 L 1053,590 L 1053,591 L 1053,592 L 1053,593 L 1053,594 L 1053,595 L 1053,596 L 1053,597 L 1053,598 L 1054,598 L 1055,598 L 1056,598 L 1057,598 L 1058,598 L 1059,598 L 1060,598 L 1061,598 L 1062,598 L 1063,598 L 1064,598 L 1065,598 L 1065,597 L 1065,596 L 1065,595 L 1065,594 L 1065,593 L 1065,592 L 1065,591 L 1065,590 L 1065,589 L 1065,588 L 1065,587 L 1065,586 L 1065,585 L 1065,584 L 1065,583 L 1065,582 L 1065,581 L 1065,580 L 1065,579 L 1065,578 L 1065,577 L 1065,576 L 1065,575 L 1065,574 L 1065,573 L 1065,572 L 1065,571 L 1065,570 L 1065,569 L 1065,568 L 1065,567 L 1065,566 L 1065,565 L 1065,564 L 1065,563 L 1065,562 L 1065,561 L 1065,560 L 1065,559 L 1065,558 L 1065,557 L 1065,556 L 1065,555 L 1065,554 L 1065,553 L 1065,552 L 1065,551 L 1065,550 L 1065,549 L 1065,548 L 1065,547 L 1065,546 L 1065,545 L 1065,544 L 1065,543 L 1065,542 L 1065,541 L 1065,540 L 1065,539 L 1065,538 L 1064,538 L 1063,538 L 1062,538 L 1061,538 L 1060,538 L 1059,538 L 1058,538 L 1057,538 L 1056,538 L 1055,538 L 1054,538 Z M 986,538 L 986,539 L 986,540 L 986,541 L 986,542 L 986,543 L 986,544 L 986,545 L 986,546 L 986,547 L 986,548 L 986,549 L 987,549 L 988,549 L 989,549 L 990,549 L 991,549 L 992,549 L 993,549 L 994,549 L 995,549 L 996,549 L 997,549 L 998,549 L 999,549 L 1000,549 L 1001,549 L 1002,549 L 1003,549 L 1004,549 L 1005,549 L 1006,550 L 1006,551 L 1006,552 L 1006,553 L 1006,554 L 1006,555 L 1006,556 L 1006,557 L 1006,558 L 1006,559 L 1006,560 L 1006,561 L 1006,562 L 1006,563 L 1006,564 L 1006,565 L 1006,566 L 1006,567 L 1006,568 L 1006,569 L 1006,570 L 1006,571 L 1006,572 L 1006,573 L 1006,574 L 1006,575 L 1006,576 L 1006,577 L 1006,578 L 1006,579 L 1006,580 L 1006,581 L 1006,582 L 1006,583 L 1006,584 L 1006,585 L 1006,586 L 1006,587 L 1006,588 L 1006,589 L 1006,590 L 1006,591 L 1006,592 L 1006,593 L 1006,594 L 1006,595 L 1006,596 L 1006,597 L 1006,598 L 1007,598 L 1008,598 L 1009,598 L 1010,598 L 1011,598 L 1012,598 L 1013,598 L 1014,598 L 1015,598 L 1016,598 L 1017,598 L 1018,598 L 1019,598 L 1019,597 L 1019,596 L 1019,595 L 1019,594 L 1019,593 L 1019,592 L 1019,591 L 1019,590 L 1019,589 L 1019,588 L 1019,587 L 1019,586 L 1019,585 L 1019,584 L 1019,583 L 1019,582 L 1019,581 L 1019,580 L 1019,579 L 1019,578 L 1019,577 L 1019,576 L 1019,575 L 1019,574 L 1019,573 L 1019,572 L 1019,571 L 1019,570 L 1019,569 L 1019,568 L 1019,567 L 1019,566 L 1019,565 L 1019,564 L 1019,563 L 1019,562 L 1019,561 L 1019,560 L 1019,559 L 1019,558 L 1019,557 L 1019,556 L 1019,555 L 1019,554 L 1019,553 L 1019,552 L 1019,551 L 1019,550 L 1020,549 L 1021,549 L 1022,549 L 1023,549 L 1024,549 L 1025,549 L 1026,549 L 1027,549 L 1028,549 L 1029,549 L 1030,549 L 1031,549 L 1032,549 L 1033,549 L 1034,549 L 1035,549 L 1036,549 L 1037,549 L 1037,548 L 1037,547 L 1037,546 L 1037,545 L 1037,544 L 1037,543 L 1037,542 L 1037,541 L 1037,540 L 1037,539 L 1037,538 L 1036,538 L 1035,538 L 1034,538 L 1033,538 L 1032,538 L 1031,538 L 1030,538 L 1029,538 L 1028,538 L 1027,538 L 1026,538 L 1025,538 L 1024,538 L 1023,538 L 1022,538 L 1021,538 L 1020,538 L 1019,538 L 1018,538 L 1017,538 L 1016,538 L 1015,538 L 1014,538 L 1013,538 L 1012,538 L 1011,538 L 1010,538 L 1009,538 L 1008,538 L 1007,538 L 1006,538 L 1005,538 L 1004,538 L 1003,538 L 1002,538 L 1001,538 L 1000,538 L 999,538 L 998,538 L 997,538 L 996,538 L 995,538 L 994,538 L 993,538 L 992,538 L 991,538 L 990,538 L 989,538 L 988,538 L 987,538 Z M 942,538 L 942,539 L 942,540 L 942,541 L 942,542 L 942,543 L 942,544 L 942,545 L 942,546 L 942,547 L 942,548 L 942,549 L 942,550 L 942,551 L 942,552 L 942,553 L 942,554 L 942,555 L 942,556 L 942,557 L 942,558 L 942,559 L 942,560 L 942,561 L 942,562 L 942,563 L 942,564 L 942,565 L 942,566 L 942,567 L 942,568 L 942,569 L 942,570 L 942,571 L 942,572 L 942,573 L 942,574 L 942,575 L 942,576 L 942,577 L 942,578 L 942,579 L 942,580 L 942,581 L 942,582 L 942,583 L 942,584 L 942,585 L 942,586 L 942,587 L 942,588 L 942,589 L 942,590 L 942,591 L 942,592 L 942,593 L 942,594 L 942,595 L 942,596 L 942,597 L 942,598 L 943,598 L 944,598 L 945,598 L 946,598 L 947,598 L 948,598 L 949,598 L 950,598 L 951,598 L 952,598 L 953,598 L 954,598 L 955,598 L 956,598 L 957,598 L 958,598 L 959,598 L 960,598 L 961,598 L 962,598 L 963,598 L 964,598 L 965,598 L 966,598 L 967,598 L 968,598 L 969,598 L 970,598 L 971,598 L 972,598 L 973,598 L 974,598 L 975,598 L 976,598 L 977,598 L 978,598 L 979,598 L 980,598 L 981,598 L 982,598 L 983,598 L 983,597 L 983,596 L 983,595 L 983,594 L 983,593 L 983,592 L 983,591 L 983,590 L 983,589 L 983,588 L 983,587 L 982,587 L 981,587 L 980,587 L 979,587 L 978,587 L 977,587 L 976,587 L 975,587 L 974,587 L 973,587 L 972,587 L 971,587 L 970,587 L 969,587 L 968,587 L 967,587 L 966,587 L 965,587 L 964,587 L 963,587 L 962,587 L 961,587 L 960,587 L 959,587 L 958,587 L 957,587 L 956,587 L 955,586 L 955,585 L 955,584 L 955,583 L 955,582 L 955,581 L 955,580 L 955,579 L 955,578 L 955,577 L 955,576 L 955,575 L 955,574 L 955,573 L 955,572 L 955,571 L 955,570 L 955,569 L 955,568 L 955,567 L 955,566 L 955,565 L 955,564 L 955,563 L 955,562 L 955,561 L 955,560 L 955,559 L 955,558 L 955,557 L 955,556 L 955,555 L 955,554 L 955,553 L 955,552 L 955,551 L 955,550 L 955,549 L 955,548 L 955,547 L 955,546 L 955,545 L 955,544 L 955,543 L 955,542 L 955,541 L 955,540 L 955,539 L 955,538 L 954,538 L 953,538 L 952,538 L 951,538 L 950,538 L 949,538 L 948,538 L 947,538 L 946,538 L 945,538 L 944,538 L 943,538 Z M 871,538 L 871,539 L 871,540 L 871,541 L 871,542 L 871,543 L 871,544 L 871,545 L 871,546 L 871,547 L 871,548 L 871,549 L 871,550 L 871,551 L 871,552 L 871,553 L 871,554 L 871,555 L 871,556 L 871,557 L 871,558 L 871,559 L 871,560 L 871,561 L 871,562 L 871,563 L 871,564 L 871,565 L 871,566 L 871,567 L 871,568 L 871,569 L 871,570 L 871,571 L 871,572 L 871,573 L 871,574 L 871,575 L 871,576 L 871,577 L 871,578 L 871,579 L 871,580 L 871,581 L 871,582 L 872,583 L 872,584 L 872,585 L 873,586 L 873,587 L 874,588 L 874,589 L 875,590 L 875,591 L 876,592 L 877,593 L 878,593 L 879,594 L 880,595 L 881,596 L 882,596 L 883,597 L 884,597 L 885,598 L 886,598 L 887,598 L 888,598 L 889,599 L 890,599 L 891,599 L 892,599 L 893,599 L 894,599 L 895,599 L 896,599 L 897,599 L 898,599 L 899,599 L 900,599 L 901,599 L 902,599 L 903,599 L 904,598 L 905,598 L 906,598 L 907,598 L 908,597 L 909,597 L 910,596 L 911,596 L 912,595 L 913,595 L 914,594 L 915,593 L 916,592 L 917,591 L 918,590 L 918,589 L 918,588 L 919,587 L 920,587 L 920,586 L 920,585 L 920,584 L 920,583 L 921,582 L 921,581 L 921,580 L 921,579 L 921,578 L 921,577 L 921,576 L 921,575 L 921,574 L 921,573 L 921,572 L 921,571 L 921,570 L 921,569 L 921,568 L 921,567 L 921,566 L 921,565 L 921,564 L 921,563 L 921,562 L 921,561 L 921,560 L 921,559 L 921,558 L 921,557 L 921,556 L 921,555 L 921,554 L 921,553 L 921,552 L 921,551 L 921,550 L 921,549 L 921,548 L 921,547 L 921,546 L 921,545 L 921,544 L 921,543 L 921,542 L 921,541 L 921,540 L 921,539 L 921,538 L 920,538 L 919,538 L 918,538 L 917,538 L 916,538 L 915,538 L 914,538 L 913,538 L 912,538 L 911,538 L 910,538 L 909,538 L 908,538 L 908,539 L 909,540 L 909,541 L 909,542 L 909,543 L 909,544 L 909,545 L 909,546 L 909,547 L 909,548 L 909,549 L 909,550 L 909,551 L 909,552 L 909,553 L 909,554 L 909,555 L 909,556 L 909,557 L 909,558 L 909,559 L 909,560 L 909,561 L 909,562 L 909,563 L 909,564 L 909,565 L 909,566 L 909,567 L 909,568 L 909,569 L 909,570 L 909,571 L 909,572 L 909,573 L 909,574 L 909,575 L 909,576 L 909,577 L 908,578 L 908,579 L 908,580 L 907,581 L 907,582 L 906,583 L 906,584 L 905,585 L 904,585 L 903,586 L 902,586 L 901,587 L 900,587 L 899,587 L 898,588 L 897,588 L 896,588 L 895,588 L 894,588 L 893,587 L 892,587 L 891,587 L 890,586 L 889,586 L 888,585 L 887,585 L 886,584 L 886,583 L 885,582 L 885,581 L 885,580 L 884,579 L 884,578 L 884,577 L 884,576 L 884,575 L 884,574 L 884,573 L 884,572 L 884,571 L 884,570 L 884,569 L 884,568 L 884,567 L 884,566 L 884,565 L 884,564 L 884,563 L 884,562 L 884,561 L 884,560 L 884,559 L 884,558 L 884,557 L 884,556 L 884,555 L 884,554 L 884,553 L 884,552 L 884,551 L 884,550 L 884,549 L 884,548 L 884,547 L 884,546 L 884,545 L 884,544 L 884,543 L 884,542 L 884,541 L 884,540 L 884,539 L 884,538 L 883,538 L 882,538 L 881,538 L 880,538 L 879,538 L 878,538 L 877,538 L 876,538 L 875,538 L 874,538 L 873,538 L 872,538 Z M 736,538 L 736,539 L 736,540 L 736,541 L 736,542 L 735,543 L 735,544 L 735,545 L 735,546 L 735,547 L 735,548 L 735,549 L 735,550 L 735,551 L 735,552 L 735,553 L 735,554 L 735,555 L 735,556 L 735,557 L 735,558 L 735,559 L 735,560 L 735,561 L 735,562 L 735,563 L 735,564 L 735,565 L 735,566 L 735,567 L 735,568 L 735,569 L 735,570 L 735,571 L 735,572 L 735,573 L 735,574 L 735,575 L 735,576 L 735,577 L 735,578 L 735,579 L 735,580 L 735,581 L 735,582 L 735,583 L 735,584 L 735,585 L 735,586 L 735,587 L 735,588 L 735,589 L 735,590 L 735,591 L 735,592 L 735,593 L 735,594 L 736,595 L 736,596 L 736,597 L 736,598 L 737,598 L 738,598 L 739,598 L 740,598 L 741,598 L 742,598 L 743,598 L 744,598 L 745,598 L 746,598 L 747,598 L 748,598 L 748,597 L 748,596 L 748,595 L 748,594 L 748,593 L 748,592 L 748,591 L 748,590 L 748,589 L 748,588 L 748,587 L 748,586 L 748,585 L 748,584 L 748,583 L 748,582 L 748,581 L 748,580 L 748,579 L 748,578 L 748,577 L 748,576 L 748,575 L 748,574 L 748,573 L 748,572 L 748,571 L 748,570 L 748,569 L 748,568 L 748,567 L 748,566 L 748,565 L 748,564 L 748,563 L 748,562 L 749,561 L 750,562 L 751,563 L 751,564 L 752,565 L 753,566 L 754,567 L 754,568 L 755,569 L 756,570 L 757,571 L 757,572 L 758,573 L 759,574 L 760,575 L 760,576 L 761,577 L 762,578 L 762,579 L 763,580 L 764,581 L 765,582 L 765,583 L 766,584 L 767,585 L 768,586 L 768,587 L 769,588 L 770,589 L 770,590 L 771,591 L 772,592 L 773,593 L 773,594 L 774,595 L 774,596 L 775,597 L 776,598 L 777,598 L 778,598 L 779,598 L 780,598 L 781,598 L 782,598 L 783,598 L 784,598 L 785,598 L 786,598 L 787,598 L 788,598 L 788,597 L 788,596 L 788,595 L 788,594 L 788,593 L 788,592 L 788,591 L 788,590 L 788,589 L 788,588 L 788,587 L 788,586 L 788,585 L 788,584 L 788,583 L 788,582 L 788,581 L 788,580 L 788,579 L 788,578 L 788,577 L 788,576 L 788,575 L 788,574 L 788,573 L 788,572 L 788,571 L 788,570 L 788,569 L 788,568 L 788,567 L 788,566 L 788,565 L 788,564 L 788,563 L 788,562 L 788,561 L 788,560 L 788,559 L 788,558 L 788,557 L 788,556 L 788,555 L 788,554 L 788,553 L 788,552 L 788,551 L 788,550 L 788,549 L 788,548 L 788,547 L 788,546 L 788,545 L 788,544 L 788,543 L 788,542 L 788,541 L 788,540 L 788,539 L 788,538 L 787,538 L 786,538 L 785,538 L 784,538 L 783,538 L 782,538 L 781,538 L 780,538 L 779,538 L 778,538 L 777,538 L 776,538 L 776,539 L 776,540 L 776,541 L 776,542 L 776,543 L 776,544 L 776,545 L 776,546 L 776,547 L 776,548 L 776,549 L 776,550 L 776,551 L 776,552 L 776,553 L 776,554 L 776,555 L 776,556 L 776,557 L 776,558 L 776,559 L 776,560 L 776,561 L 776,562 L 776,563 L 776,564 L 776,565 L 776,566 L 776,567 L 776,568 L 776,569 L 776,570 L 776,571 L 776,572 L 776,573 L 776,574 L 775,575 L 774,574 L 773,573 L 772,572 L 771,571 L 771,570 L 770,569 L 769,568 L 769,567 L 768,566 L 767,565 L 766,564 L 766,563 L 765,562 L 764,561 L 763,560 L 763,559 L 762,558 L 761,557 L 761,556 L 760,555 L 759,554 L 758,553 L 758,552 L 757,551 L 756,550 L 755,549 L 755,548 L 754,547 L 753,546 L 753,545 L 752,544 L 751,543 L 750,542 L 750,541 L 749,540 L 748,539 L 748,538 L 747,538 L 746,538 L 745,538 L 744,538 L 743,538 L 742,538 L 741,538 L 740,538 L 739,538 L 738,538 L 737,538 Z M 1184,537 L 1183,538 L 1182,538 L 1181,538 L 1180,538 L 1179,539 L 1178,539 L 1177,540 L 1176,540 L 1175,540 L 1174,540 L 1174,541 L 1173,542 L 1172,542 L 1171,543 L 1170,544 L 1169,545 L 1168,545 L 1167,546 L 1167,547 L 1166,548 L 1165,549 L 1164,550 L 1164,551 L 1163,552 L 1162,553 L 1162,554 L 1162,555 L 1161,556 L 1161,557 L 1161,558 L 1160,559 L 1160,560 L 1160,561 L 1159,562 L 1159,563 L 1159,564 L 1159,565 L 1159,566 L 1159,567 L 1159,568 L 1159,569 L 1159,570 L 1159,571 L 1159,572 L 1159,573 L 1160,574 L 1160,575 L 1160,576 L 1160,577 L 1160,578 L 1161,579 L 1161,580 L 1162,581 L 1162,582 L 1162,583 L 1163,584 L 1164,585 L 1164,586 L 1165,587 L 1166,588 L 1167,589 L 1167,590 L 1168,591 L 1169,592 L 1170,592 L 1171,593 L 1172,594 L 1173,594 L 1174,595 L 1175,596 L 1176,596 L 1177,597 L 1178,597 L 1179,597 L 1180,598 L 1181,598 L 1182,598 L 1183,598 L 1184,599 L 1185,599 L 1186,599 L 1187,599 L 1188,599 L 1189,599 L 1190,599 L 1191,599 L 1192,599 L 1193,599 L 1194,599 L 1195,599 L 1196,598 L 1197,598 L 1198,598 L 1199,598 L 1200,598 L 1201,597 L 1202,597 L 1203,597 L 1204,597 L 1205,596 L 1206,596 L 1207,595 L 1208,595 L 1209,594 L 1210,594 L 1211,593 L 1212,592 L 1213,591 L 1214,590 L 1215,589 L 1216,589 L 1217,588 L 1217,587 L 1217,586 L 1217,585 L 1217,584 L 1217,583 L 1217,582 L 1217,581 L 1217,580 L 1217,579 L 1217,578 L 1217,577 L 1217,576 L 1217,575 L 1217,574 L 1217,573 L 1217,572 L 1217,571 L 1217,570 L 1217,569 L 1217,568 L 1217,567 L 1217,566 L 1217,565 L 1216,565 L 1215,565 L 1214,565 L 1213,565 L 1212,565 L 1211,565 L 1210,565 L 1209,565 L 1208,565 L 1207,565 L 1206,565 L 1205,565 L 1204,565 L 1203,565 L 1202,565 L 1201,565 L 1200,565 L 1199,565 L 1198,565 L 1197,565 L 1196,565 L 1195,565 L 1194,565 L 1193,565 L 1192,565 L 1192,566 L 1192,567 L 1192,568 L 1192,569 L 1192,570 L 1192,571 L 1192,572 L 1192,573 L 1192,574 L 1192,575 L 1193,575 L 1194,575 L 1195,575 L 1196,575 L 1197,575 L 1198,575 L 1199,575 L 1200,575 L 1201,575 L 1202,575 L 1203,575 L 1204,575 L 1205,576 L 1205,577 L 1205,578 L 1205,579 L 1205,580 L 1205,581 L 1205,582 L 1204,583 L 1203,584 L 1202,585 L 1201,585 L 1200,586 L 1199,586 L 1198,586 L 1197,587 L 1196,587 L 1195,587 L 1194,587 L 1193,587 L 1192,588 L 1191,587 L 1190,587 L 1189,587 L 1188,587 L 1187,587 L 1186,587 L 1185,587 L 1184,586 L 1183,586 L 1182,585 L 1181,585 L 1180,584 L 1179,583 L 1178,582 L 1177,581 L 1177,580 L 1176,580 L 1175,579 L 1175,578 L 1174,577 L 1174,576 L 1174,575 L 1173,574 L 1173,573 L 1173,572 L 1173,571 L 1173,570 L 1172,569 L 1172,568 L 1172,567 L 1172,566 L 1173,565 L 1173,564 L 1173,563 L 1173,562 L 1173,561 L 1174,560 L 1174,559 L 1175,558 L 1175,557 L 1176,556 L 1177,555 L 1178,554 L 1179,553 L 1180,552 L 1181,551 L 1182,551 L 1183,550 L 1184,550 L 1185,549 L 1186,549 L 1187,549 L 1188,549 L 1189,548 L 1190,548 L 1191,548 L 1192,548 L 1193,548 L 1194,549 L 1195,549 L 1196,549 L 1197,550 L 1198,550 L 1199,551 L 1200,551 L 1201,552 L 1202,553 L 1203,554 L 1204,555 L 1205,555 L 1206,556 L 1207,556 L 1208,555 L 1209,554 L 1210,554 L 1211,553 L 1212,552 L 1213,551 L 1214,550 L 1215,550 L 1215,549 L 1214,548 L 1214,547 L 1213,547 L 1212,546 L 1211,545 L 1210,544 L 1209,543 L 1208,542 L 1207,542 L 1206,541 L 1205,540 L 1204,540 L 1203,540 L 1202,539 L 1201,539 L 1200,538 L 1199,538 L 1198,538 L 1197,537 L 1196,537 L 1195,537 L 1194,537 L 1193,537 L 1192,537 L 1191,537 L 1190,537 L 1189,537 L 1188,537 L 1187,537 L 1186,537 L 1185,537 Z M 825,537 L 824,538 L 823,538 L 822,538 L 821,539 L 820,539 L 819,539 L 818,540 L 817,540 L 816,541 L 815,542 L 814,542 L 813,543 L 812,544 L 811,545 L 811,546 L 810,547 L 809,548 L 809,549 L 809,550 L 808,551 L 808,552 L 808,553 L 808,554 L 808,555 L 808,556 L 808,557 L 808,558 L 808,559 L 809,560 L 809,561 L 809,562 L 810,563 L 810,564 L 811,565 L 812,566 L 813,567 L 814,568 L 815,569 L 816,569 L 817,570 L 818,570 L 819,571 L 820,571 L 821,571 L 822,572 L 823,572 L 824,572 L 825,573 L 826,573 L 827,574 L 828,574 L 829,574 L 830,574 L 831,575 L 832,575 L 833,575 L 834,576 L 835,576 L 836,577 L 837,577 L 838,578 L 839,579 L 839,580 L 840,581 L 840,582 L 839,583 L 839,584 L 838,585 L 837,586 L 836,587 L 835,587 L 834,587 L 833,588 L 832,588 L 831,588 L 830,588 L 829,588 L 828,588 L 827,588 L 826,587 L 825,587 L 824,587 L 823,587 L 822,586 L 821,586 L 820,585 L 819,585 L 818,584 L 817,583 L 816,582 L 815,581 L 815,580 L 814,580 L 813,580 L 812,581 L 811,582 L 810,582 L 809,583 L 808,584 L 807,585 L 806,586 L 805,586 L 805,587 L 805,588 L 806,589 L 807,590 L 807,591 L 808,591 L 809,592 L 810,593 L 811,594 L 812,595 L 813,595 L 814,596 L 815,596 L 816,597 L 817,597 L 818,597 L 819,598 L 820,598 L 821,598 L 822,598 L 823,599 L 824,599 L 825,599 L 826,599 L 827,599 L 828,599 L 829,599 L 830,599 L 831,599 L 832,599 L 833,599 L 834,599 L 835,599 L 836,599 L 837,599 L 838,598 L 839,598 L 840,598 L 841,597 L 842,597 L 843,597 L 844,596 L 845,595 L 846,595 L 847,594 L 848,593 L 849,592 L 850,591 L 851,590 L 851,589 L 852,588 L 852,587 L 852,586 L 852,585 L 852,584 L 853,583 L 853,582 L 853,581 L 853,580 L 853,579 L 853,578 L 853,577 L 852,576 L 852,575 L 852,574 L 851,573 L 851,572 L 850,571 L 850,570 L 849,569 L 848,568 L 847,568 L 846,567 L 845,566 L 844,566 L 843,565 L 842,565 L 841,565 L 840,564 L 839,564 L 838,563 L 837,563 L 836,563 L 835,562 L 834,562 L 833,562 L 832,561 L 831,561 L 830,561 L 829,560 L 828,560 L 827,560 L 826,559 L 825,559 L 824,558 L 823,558 L 822,557 L 821,556 L 821,555 L 821,554 L 821,553 L 822,552 L 822,551 L 823,550 L 824,550 L 825,549 L 826,549 L 827,549 L 828,548 L 829,548 L 830,548 L 831,548 L 832,548 L 833,549 L 834,549 L 835,549 L 836,550 L 837,551 L 838,551 L 839,552 L 840,553 L 841,554 L 842,555 L 842,556 L 843,556 L 844,555 L 845,555 L 846,554 L 847,553 L 848,552 L 849,552 L 850,551 L 851,550 L 852,549 L 852,548 L 851,547 L 850,546 L 849,545 L 848,544 L 847,543 L 846,542 L 845,541 L 844,541 L 843,540 L 842,540 L 841,539 L 840,539 L 839,538 L 838,538 L 837,538 L 836,538 L 835,538 L 834,538 L 833,537 L 832,537 L 831,537 L 830,537 L 829,537 L 828,537 L 827,537 L 826,537 Z M 681,537 L 680,538 L 679,538 L 678,538 L 677,539 L 676,539 L 675,539 L 674,540 L 673,540 L 672,541 L 671,541 L 670,542 L 669,543 L 668,543 L 667,544 L 666,545 L 665,546 L 664,547 L 663,548 L 662,549 L 661,550 L 661,551 L 660,552 L 660,553 L 659,554 L 659,555 L 658,556 L 658,557 L 657,558 L 657,559 L 657,560 L 657,561 L 656,562 L 656,563 L 656,564 L 656,565 L 656,566 L 656,567 L 656,568 L 656,569 L 656,570 L 656,571 L 656,572 L 656,573 L 656,574 L 657,575 L 657,576 L 657,577 L 657,578 L 658,579 L 658,580 L 658,581 L 659,582 L 659,583 L 660,584 L 660,585 L 661,586 L 662,587 L 663,588 L 663,589 L 664,589 L 665,590 L 665,591 L 666,592 L 667,593 L 668,593 L 669,594 L 670,595 L 671,595 L 672,596 L 673,596 L 674,597 L 675,597 L 676,598 L 677,598 L 678,598 L 679,599 L 680,599 L 681,599 L 682,599 L 683,599 L 684,599 L 685,599 L 686,599 L 687,599 L 688,600 L 689,600 L 690,599 L 691,599 L 692,599 L 693,599 L 694,599 L 695,599 L 696,598 L 697,598 L 698,598 L 699,597 L 700,597 L 701,596 L 702,596 L 703,596 L 704,595 L 705,594 L 706,594 L 707,593 L 708,592 L 709,591 L 710,590 L 711,589 L 712,588 L 713,587 L 714,586 L 714,585 L 714,584 L 715,583 L 716,582 L 716,581 L 716,580 L 717,579 L 717,578 L 717,577 L 717,576 L 718,575 L 718,574 L 718,573 L 718,572 L 718,571 L 718,570 L 718,569 L 718,568 L 718,567 L 718,566 L 718,565 L 718,564 L 718,563 L 718,562 L 717,561 L 717,560 L 717,559 L 717,558 L 716,557 L 716,556 L 715,555 L 715,554 L 715,553 L 714,552 L 714,551 L 713,550 L 712,549 L 711,548 L 710,547 L 709,546 L 708,545 L 707,544 L 706,543 L 705,542 L 704,542 L 703,541 L 702,541 L 701,540 L 700,540 L 699,539 L 698,539 L 697,539 L 696,538 L 695,538 L 694,538 L 693,538 L 692,537 L 691,537 L 690,537 L 689,537 L 688,537 L 687,537 L 686,537 L 685,537 L 684,537 L 683,537 L 682,537 Z M 685,549 L 686,548 L 687,549 L 688,549 L 689,548 L 690,549 L 691,549 L 692,549 L 693,549 L 694,550 L 695,550 L 696,551 L 697,551 L 698,552 L 699,553 L 700,554 L 701,555 L 702,556 L 702,557 L 703,558 L 703,559 L 704,560 L 704,561 L 704,562 L 705,563 L 705,564 L 705,565 L 705,566 L 705,567 L 705,568 L 705,569 L 705,570 L 705,571 L 705,572 L 705,573 L 705,574 L 704,575 L 704,576 L 704,577 L 703,578 L 702,579 L 702,580 L 701,581 L 700,582 L 699,583 L 698,584 L 697,585 L 696,585 L 695,586 L 694,586 L 693,587 L 692,587 L 691,588 L 690,588 L 689,588 L 688,588 L 687,588 L 686,588 L 685,588 L 684,588 L 683,587 L 682,587 L 681,587 L 680,586 L 679,586 L 678,585 L 677,585 L 676,584 L 675,583 L 674,582 L 673,581 L 673,580 L 672,579 L 672,578 L 671,577 L 671,576 L 670,575 L 670,574 L 670,573 L 669,572 L 669,571 L 669,570 L 669,569 L 669,568 L 669,567 L 669,566 L 669,565 L 670,564 L 670,563 L 670,562 L 670,561 L 671,560 L 671,559 L 672,558 L 672,557 L 673,556 L 674,555 L 675,554 L 676,553 L 677,552 L 678,551 L 679,551 L 680,550 L 681,550 L 682,549 L 683,549 L 684,549 Z M 613,537 L 612,538 L 611,538 L 610,538 L 609,538 L 608,539 L 607,539 L 606,539 L 605,540 L 604,540 L 603,540 L 602,541 L 601,542 L 600,543 L 599,543 L 598,544 L 597,545 L 596,545 L 595,546 L 595,547 L 594,548 L 593,549 L 592,550 L 591,551 L 591,552 L 590,553 L 590,554 L 589,555 L 589,556 L 589,557 L 588,558 L 588,559 L 588,560 L 587,561 L 587,562 L 587,563 L 587,564 L 587,565 L 586,566 L 586,567 L 586,568 L 587,569 L 587,570 L 587,571 L 587,572 L 587,573 L 587,574 L 587,575 L 587,576 L 588,577 L 588,578 L 588,579 L 588,580 L 589,581 L 589,582 L 590,583 L 590,584 L 591,585 L 591,586 L 592,587 L 593,588 L 593,589 L 594,590 L 595,591 L 596,592 L 597,593 L 598,593 L 599,594 L 600,595 L 601,595 L 602,596 L 603,597 L 604,597 L 605,597 L 606,598 L 607,598 L 608,599 L 609,599 L 610,599 L 611,599 L 612,600 L 613,600 L 614,600 L 615,600 L 616,600 L 617,600 L 618,600 L 619,600 L 620,600 L 621,600 L 622,600 L 623,600 L 624,599 L 625,599 L 626,599 L 627,599 L 628,599 L 629,598 L 630,598 L 631,597 L 632,597 L 633,597 L 634,596 L 635,595 L 636,595 L 637,594 L 638,593 L 639,592 L 640,591 L 641,590 L 642,589 L 643,588 L 643,587 L 644,586 L 644,585 L 643,584 L 642,584 L 641,583 L 640,583 L 639,582 L 638,581 L 637,581 L 636,580 L 635,580 L 634,580 L 633,581 L 632,582 L 631,583 L 630,584 L 629,585 L 628,586 L 627,586 L 626,587 L 625,587 L 624,588 L 623,588 L 622,588 L 621,588 L 620,588 L 619,589 L 618,588 L 617,588 L 616,588 L 615,588 L 614,588 L 613,588 L 612,587 L 611,587 L 610,586 L 609,586 L 608,585 L 607,584 L 606,583 L 605,582 L 604,581 L 603,580 L 603,579 L 602,578 L 601,577 L 601,576 L 601,575 L 601,574 L 600,573 L 600,572 L 600,571 L 600,570 L 600,569 L 599,568 L 600,567 L 600,566 L 600,565 L 600,564 L 601,563 L 601,562 L 601,561 L 601,560 L 602,559 L 603,558 L 603,557 L 604,556 L 605,555 L 605,554 L 606,553 L 607,553 L 608,552 L 609,551 L 610,551 L 611,550 L 612,550 L 613,550 L 614,549 L 615,549 L 616,549 L 617,549 L 618,549 L 619,549 L 620,549 L 621,549 L 622,549 L 623,550 L 624,550 L 625,550 L 626,551 L 627,551 L 628,552 L 629,553 L 630,553 L 631,554 L 632,555 L 632,556 L 633,557 L 634,557 L 635,557 L 636,557 L 637,556 L 638,556 L 639,555 L 640,555 L 641,554 L 642,554 L 643,553 L 643,552 L 643,551 L 643,550 L 642,549 L 641,548 L 640,547 L 640,546 L 639,546 L 638,545 L 637,544 L 636,543 L 635,542 L 634,542 L 633,541 L 632,540 L 631,539 L 630,539 L 629,539 L 628,539 L 627,539 L 626,538 L 625,538 L 624,538 L 623,537 L 622,537 L 621,537 L 620,537 L 619,537 L 618,537 L 617,537 L 616,537 L 615,537 L 614,537 Z M 308,460 L 308,461 L 308,462 L 308,463 L 308,464 L 308,465 L 308,466 L 308,467 L 308,468 L 308,469 L 308,470 L 308,471 L 308,472 L 308,473 L 308,474 L 308,475 L 308,476 L 308,477 L 308,478 L 308,479 L 308,480 L 308,481 L 308,482 L 308,483 L 308,484 L 308,485 L 308,486 L 308,487 L 308,488 L 308,489 L 308,490 L 308,491 L 308,492 L 308,493 L 308,494 L 308,495 L 308,496 L 308,497 L 308,498 L 308,499 L 308,500 L 308,501 L 308,502 L 308,503 L 308,504 L 308,505 L 308,506 L 308,507 L 308,508 L 308,509 L 308,510 L 308,511 L 308,512 L 308,513 L 308,514 L 308,515 L 308,516 L 308,517 L 308,518 L 308,519 L 308,520 L 308,521 L 308,522 L 308,523 L 308,524 L 308,525 L 308,526 L 308,527 L 308,528 L 308,529 L 308,530 L 308,531 L 308,532 L 308,533 L 308,534 L 308,535 L 308,536 L 308,537 L 308,538 L 308,539 L 308,540 L 308,541 L 308,542 L 308,543 L 308,544 L 308,545 L 308,546 L 308,547 L 308,548 L 308,549 L 308,550 L 308,551 L 308,552 L 308,553 L 308,554 L 308,555 L 308,556 L 308,557 L 308,558 L 309,558 L 310,558 L 311,558 L 312,558 L 313,558 L 314,558 L 315,558 L 316,558 L 317,558 L 318,558 L 319,558 L 320,558 L 321,558 L 322,558 L 323,558 L 324,558 L 325,558 L 326,558 L 327,558 L 328,558 L 329,558 L 330,558 L 331,558 L 332,558 L 333,558 L 334,558 L 335,558 L 336,558 L 337,558 L 338,558 L 339,558 L 340,558 L 341,558 L 342,558 L 343,558 L 344,558 L 344,557 L 344,556 L 344,555 L 344,554 L 344,553 L 344,552 L 344,551 L 344,550 L 344,549 L 344,548 L 344,547 L 344,546 L 344,545 L 344,544 L 344,543 L 344,542 L 344,541 L 344,540 L 344,539 L 344,538 L 344,537 L 344,536 L 344,535 L 344,534 L 344,533 L 344,532 L 344,531 L 344,530 L 344,529 L 344,528 L 344,527 L 344,526 L 344,525 L 344,524 L 344,523 L 344,522 L 344,521 L 344,520 L 344,519 L 344,518 L 344,517 L 344,516 L 344,515 L 344,514 L 344,513 L 344,512 L 344,511 L 344,510 L 344,509 L 344,508 L 344,507 L 344,506 L 344,505 L 344,504 L 344,503 L 344,502 L 344,501 L 344,500 L 344,499 L 344,498 L 344,497 L 344,496 L 344,495 L 344,494 L 344,493 L 344,492 L 344,491 L 344,490 L 344,489 L 344,488 L 344,487 L 344,486 L 344,485 L 344,484 L 344,483 L 344,482 L 344,481 L 344,480 L 344,479 L 344,478 L 344,477 L 344,476 L 344,475 L 344,474 L 344,473 L 344,472 L 344,471 L 344,470 L 344,469 L 344,468 L 344,467 L 344,466 L 344,465 L 344,464 L 344,463 L 344,462 L 344,461 L 344,460 L 343,460 L 342,460 L 341,460 L 340,460 L 339,460 L 338,460 L 337,460 L 336,460 L 335,460 L 334,460 L 333,460 L 332,460 L 331,460 L 330,460 L 329,460 L 328,460 L 327,460 L 326,460 L 325,460 L 324,460 L 323,460 L 322,460 L 321,460 L 320,460 L 319,460 L 318,460 L 317,460 L 316,460 L 315,460 L 314,460 L 313,460 L 312,460 L 311,460 L 310,460 L 309,460 Z M 469,421 L 468,422 L 467,422 L 466,422 L 465,422 L 464,422 L 463,422 L 462,422 L 461,422 L 460,423 L 459,423 L 458,423 L 457,423 L 456,423 L 455,423 L 454,424 L 453,424 L 452,424 L 451,424 L 450,425 L 449,425 L 448,425 L 447,426 L 446,426 L 445,427 L 444,427 L 443,427 L 442,428 L 441,428 L 440,429 L 439,429 L 438,430 L 437,430 L 436,431 L 435,431 L 434,432 L 433,432 L 432,433 L 431,434 L 430,434 L 429,435 L 428,436 L 427,436 L 426,437 L 425,438 L 424,438 L 423,439 L 422,440 L 421,441 L 420,442 L 419,442 L 419,443 L 418,444 L 417,445 L 416,446 L 415,447 L 415,448 L 414,449 L 413,449 L 413,450 L 412,451 L 411,452 L 410,453 L 410,454 L 409,455 L 408,456 L 408,457 L 407,458 L 406,459 L 405,460 L 405,461 L 405,462 L 404,463 L 404,464 L 403,465 L 403,466 L 402,467 L 402,468 L 401,469 L 401,470 L 400,471 L 400,472 L 400,473 L 399,474 L 399,475 L 399,476 L 399,477 L 398,478 L 398,479 L 398,480 L 397,481 L 397,482 L 397,483 L 397,484 L 397,485 L 397,486 L 396,487 L 396,488 L 396,489 L 396,490 L 396,491 L 396,492 L 396,493 L 396,494 L 396,495 L 396,496 L 396,497 L 396,498 L 396,499 L 396,500 L 396,501 L 396,502 L 396,503 L 396,504 L 396,505 L 396,506 L 396,507 L 396,508 L 397,509 L 397,510 L 397,511 L 397,512 L 397,513 L 397,514 L 398,515 L 398,516 L 398,517 L 398,518 L 399,519 L 399,520 L 399,521 L 400,522 L 400,523 L 400,524 L 401,525 L 401,526 L 402,527 L 402,528 L 402,529 L 403,530 L 403,531 L 404,532 L 404,533 L 405,534 L 406,535 L 406,536 L 407,537 L 407,538 L 408,539 L 409,540 L 409,541 L 410,542 L 410,543 L 411,543 L 412,544 L 412,545 L 413,546 L 414,547 L 415,548 L 416,549 L 417,550 L 417,551 L 418,552 L 419,552 L 420,553 L 421,554 L 422,555 L 423,556 L 424,557 L 424,558 L 425,558 L 426,559 L 427,559 L 428,560 L 429,561 L 430,562 L 431,562 L 432,563 L 433,563 L 434,564 L 435,565 L 436,565 L 437,566 L 438,566 L 439,567 L 440,567 L 441,568 L 442,568 L 443,568 L 444,569 L 445,569 L 446,570 L 447,570 L 448,570 L 449,571 L 450,571 L 451,571 L 452,572 L 453,572 L 454,572 L 455,573 L 456,573 L 457,573 L 458,573 L 459,573 L 460,573 L 461,573 L 462,574 L 463,574 L 464,574 L 465,574 L 466,574 L 467,574 L 468,574 L 469,574 L 470,574 L 471,574 L 472,574 L 473,574 L 474,574 L 475,574 L 476,574 L 477,574 L 478,574 L 479,574 L 480,574 L 481,574 L 482,574 L 483,574 L 484,574 L 485,573 L 486,573 L 487,573 L 488,573 L 489,573 L 490,572 L 491,572 L 492,572 L 493,572 L 494,572 L 495,571 L 496,571 L 497,570 L 498,570 L 499,570 L 500,570 L 501,569 L 502,569 L 503,568 L 504,568 L 505,568 L 506,567 L 507,567 L 508,566 L 509,565 L 510,565 L 511,564 L 512,565 L 513,566 L 514,567 L 515,568 L 516,569 L 517,570 L 518,571 L 519,572 L 520,573 L 521,574 L 522,575 L 523,576 L 524,577 L 525,578 L 526,579 L 527,580 L 528,581 L 528,582 L 529,582 L 530,583 L 531,584 L 532,585 L 533,586 L 534,587 L 535,588 L 536,589 L 536,590 L 537,591 L 538,591 L 539,592 L 540,593 L 541,594 L 542,595 L 542,596 L 543,597 L 544,598 L 545,599 L 546,600 L 547,601 L 548,601 L 549,602 L 550,602 L 551,603 L 552,603 L 553,603 L 554,603 L 555,603 L 556,603 L 557,603 L 558,603 L 559,603 L 560,603 L 561,602 L 562,602 L 563,602 L 564,601 L 565,600 L 566,599 L 567,598 L 567,597 L 568,596 L 569,595 L 569,594 L 569,593 L 569,592 L 570,591 L 570,590 L 570,589 L 569,588 L 569,587 L 569,586 L 569,585 L 568,584 L 568,583 L 567,582 L 566,581 L 565,580 L 564,579 L 564,578 L 563,578 L 562,577 L 562,576 L 561,575 L 560,575 L 559,574 L 558,573 L 557,572 L 557,571 L 556,571 L 555,570 L 554,569 L 554,568 L 553,567 L 552,566 L 551,566 L 550,565 L 550,564 L 549,564 L 548,563 L 547,562 L 546,561 L 546,560 L 545,559 L 544,558 L 543,557 L 542,556 L 541,555 L 540,554 L 539,553 L 538,552 L 537,551 L 536,550 L 536,549 L 535,549 L 534,548 L 533,547 L 532,546 L 533,545 L 534,544 L 535,543 L 536,542 L 536,541 L 537,540 L 538,539 L 538,538 L 539,537 L 539,536 L 540,535 L 540,534 L 541,533 L 541,532 L 542,531 L 542,530 L 543,529 L 543,528 L 544,527 L 544,526 L 544,525 L 545,524 L 545,523 L 545,522 L 545,521 L 546,520 L 546,519 L 546,518 L 546,517 L 547,516 L 547,515 L 547,514 L 547,513 L 547,512 L 548,511 L 548,510 L 548,509 L 548,508 L 548,507 L 548,506 L 548,505 L 548,504 L 549,503 L 549,502 L 549,501 L 549,500 L 549,499 L 549,498 L 548,497 L 548,496 L 548,495 L 548,494 L 548,493 L 548,492 L 548,491 L 548,490 L 548,489 L 548,488 L 548,487 L 547,486 L 547,485 L 547,484 L 547,483 L 547,482 L 546,481 L 546,480 L 546,479 L 546,478 L 545,477 L 545,476 L 545,475 L 544,474 L 544,473 L 544,472 L 543,471 L 543,470 L 543,469 L 542,468 L 542,467 L 541,466 L 541,465 L 540,464 L 540,463 L 539,462 L 538,461 L 538,460 L 537,459 L 537,458 L 536,457 L 536,456 L 535,455 L 534,454 L 533,453 L 532,452 L 532,451 L 531,450 L 530,449 L 530,448 L 529,448 L 528,447 L 527,446 L 526,445 L 525,444 L 524,443 L 523,442 L 522,441 L 521,440 L 520,439 L 519,438 L 518,437 L 517,437 L 516,436 L 515,436 L 514,435 L 513,434 L 512,433 L 511,433 L 510,432 L 509,431 L 508,431 L 507,430 L 506,430 L 505,429 L 504,429 L 503,428 L 502,428 L 501,428 L 500,427 L 499,427 L 498,426 L 497,426 L 496,426 L 495,425 L 494,425 L 493,425 L 492,424 L 491,424 L 490,424 L 489,424 L 488,423 L 487,423 L 486,423 L 485,423 L 484,423 L 483,422 L 482,422 L 481,422 L 480,422 L 479,422 L 478,422 L 477,422 L 476,421 L 475,421 L 474,421 L 473,421 L 472,421 L 471,421 L 470,421 Z M 465,442 L 466,441 L 467,441 L 468,441 L 469,441 L 470,441 L 471,441 L 472,441 L 473,441 L 474,441 L 475,441 L 476,441 L 477,441 L 478,442 L 479,442 L 480,442 L 481,442 L 482,442 L 483,442 L 484,442 L 485,443 L 486,443 L 487,443 L 488,443 L 489,444 L 490,444 L 491,444 L 492,445 L 493,445 L 494,446 L 495,446 L 496,447 L 497,447 L 498,448 L 499,448 L 500,449 L 501,449 L 502,450 L 503,451 L 504,451 L 505,452 L 506,453 L 507,454 L 508,454 L 509,455 L 510,456 L 511,457 L 512,458 L 512,459 L 513,459 L 514,460 L 515,461 L 515,462 L 516,463 L 517,464 L 518,465 L 519,466 L 519,467 L 520,468 L 521,469 L 521,470 L 522,471 L 522,472 L 523,473 L 523,474 L 524,475 L 524,476 L 524,477 L 525,478 L 525,479 L 526,480 L 526,481 L 526,482 L 527,483 L 527,484 L 527,485 L 528,486 L 528,487 L 528,488 L 528,489 L 528,490 L 529,491 L 529,492 L 529,493 L 529,494 L 529,495 L 529,496 L 529,497 L 529,498 L 529,499 L 529,500 L 529,501 L 529,502 L 529,503 L 529,504 L 529,505 L 529,506 L 528,507 L 528,508 L 528,509 L 528,510 L 528,511 L 528,512 L 527,513 L 527,514 L 527,515 L 526,516 L 526,517 L 526,518 L 526,519 L 525,520 L 525,521 L 524,522 L 524,523 L 523,524 L 523,525 L 522,526 L 522,527 L 521,528 L 520,529 L 520,530 L 519,531 L 519,532 L 518,533 L 517,534 L 516,535 L 515,536 L 515,537 L 514,538 L 513,539 L 512,539 L 512,540 L 511,541 L 510,541 L 509,542 L 508,543 L 507,544 L 506,545 L 505,545 L 504,546 L 503,547 L 502,547 L 501,548 L 500,548 L 499,549 L 498,549 L 497,550 L 496,550 L 495,551 L 494,551 L 493,551 L 492,552 L 491,552 L 490,552 L 489,553 L 488,553 L 487,554 L 486,554 L 485,554 L 484,554 L 483,554 L 482,555 L 481,555 L 480,555 L 479,555 L 478,555 L 477,555 L 476,555 L 475,556 L 474,556 L 473,556 L 472,556 L 471,555 L 470,555 L 469,555 L 468,555 L 467,555 L 466,555 L 465,555 L 464,555 L 463,555 L 462,554 L 461,554 L 460,554 L 459,554 L 458,553 L 457,553 L 456,553 L 455,553 L 454,552 L 453,552 L 452,551 L 451,551 L 450,551 L 449,550 L 448,550 L 447,549 L 446,549 L 445,548 L 444,547 L 443,547 L 442,546 L 441,546 L 440,545 L 439,544 L 438,544 L 437,543 L 436,542 L 435,541 L 434,540 L 433,539 L 432,538 L 431,537 L 430,536 L 429,535 L 428,534 L 427,533 L 427,532 L 426,531 L 425,530 L 425,529 L 424,528 L 423,527 L 423,526 L 422,525 L 422,524 L 421,523 L 421,522 L 420,521 L 420,520 L 420,519 L 419,518 L 419,517 L 419,516 L 418,515 L 418,514 L 418,513 L 417,512 L 417,511 L 417,510 L 417,509 L 416,508 L 416,507 L 416,506 L 416,505 L 416,504 L 416,503 L 416,502 L 415,501 L 415,500 L 415,499 L 415,498 L 415,497 L 415,496 L 415,495 L 415,494 L 415,493 L 416,492 L 416,491 L 416,490 L 416,489 L 416,488 L 416,487 L 417,486 L 417,485 L 417,484 L 417,483 L 418,482 L 418,481 L 418,480 L 419,479 L 419,478 L 420,477 L 420,476 L 420,475 L 421,474 L 421,473 L 422,472 L 422,471 L 423,470 L 423,469 L 424,468 L 425,467 L 425,466 L 426,465 L 427,464 L 428,463 L 428,462 L 429,461 L 430,460 L 431,459 L 432,458 L 433,458 L 434,457 L 434,456 L 435,455 L 436,454 L 437,454 L 438,453 L 439,452 L 440,451 L 441,451 L 442,450 L 443,450 L 444,449 L 445,448 L 446,448 L 447,447 L 448,447 L 449,446 L 450,446 L 451,445 L 452,445 L 453,444 L 454,444 L 455,444 L 456,443 L 457,443 L 458,443 L 459,443 L 460,442 L 461,442 L 462,442 L 463,442 L 464,442 Z M 363,421 L 363,422 L 363,423 L 363,424 L 363,425 L 363,426 L 363,427 L 363,428 L 363,429 L 363,430 L 363,431 L 363,432 L 363,433 L 363,434 L 363,435 L 363,436 L 363,437 L 363,438 L 363,439 L 363,440 L 363,441 L 363,442 L 363,443 L 363,444 L 363,445 L 363,446 L 363,447 L 363,448 L 363,449 L 363,450 L 363,451 L 363,452 L 363,453 L 363,454 L 363,455 L 363,456 L 363,457 L 363,458 L 363,459 L 363,460 L 363,461 L 363,462 L 363,463 L 363,464 L 363,465 L 363,466 L 363,467 L 363,468 L 363,469 L 363,470 L 363,471 L 363,472 L 363,473 L 363,474 L 363,475 L 363,476 L 363,477 L 363,478 L 363,479 L 363,480 L 363,481 L 363,482 L 363,483 L 363,484 L 363,485 L 363,486 L 363,487 L 363,488 L 363,489 L 363,490 L 363,491 L 363,492 L 363,493 L 363,494 L 363,495 L 363,496 L 363,497 L 363,498 L 363,499 L 363,500 L 363,501 L 363,502 L 363,503 L 363,504 L 363,505 L 363,506 L 363,507 L 363,508 L 363,509 L 363,510 L 363,511 L 363,512 L 363,513 L 363,514 L 363,515 L 363,516 L 363,517 L 363,518 L 363,519 L 363,520 L 363,521 L 363,522 L 363,523 L 363,524 L 363,525 L 363,526 L 363,527 L 363,528 L 363,529 L 363,530 L 363,531 L 363,532 L 363,533 L 363,534 L 363,535 L 363,536 L 363,537 L 363,538 L 363,539 L 363,540 L 363,541 L 363,542 L 363,543 L 363,544 L 363,545 L 363,546 L 363,547 L 363,548 L 363,549 L 363,550 L 363,551 L 363,552 L 363,553 L 363,554 L 363,555 L 363,556 L 363,557 L 363,558 L 363,559 L 364,559 L 365,558 L 366,558 L 367,558 L 368,558 L 369,558 L 370,558 L 371,558 L 372,558 L 373,558 L 374,558 L 375,558 L 376,558 L 377,558 L 378,558 L 379,558 L 380,558 L 381,558 L 382,558 L 383,558 L 384,558 L 385,558 L 386,558 L 387,558 L 388,558 L 389,558 L 390,558 L 391,558 L 392,558 L 393,558 L 394,558 L 395,558 L 396,558 L 397,558 L 398,558 L 399,558 L 399,557 L 399,556 L 399,555 L 399,554 L 399,553 L 399,552 L 399,551 L 399,550 L 398,549 L 397,548 L 397,547 L 396,546 L 395,545 L 395,544 L 394,543 L 394,542 L 393,541 L 392,540 L 392,539 L 391,538 L 391,537 L 390,536 L 390,535 L 389,534 L 389,533 L 388,532 L 388,531 L 388,530 L 387,529 L 387,528 L 387,527 L 386,526 L 386,525 L 386,524 L 385,523 L 385,522 L 385,521 L 384,520 L 384,519 L 384,518 L 384,517 L 383,516 L 383,515 L 383,514 L 383,513 L 383,512 L 382,511 L 382,510 L 382,509 L 382,508 L 382,507 L 382,506 L 382,505 L 382,504 L 382,503 L 381,502 L 381,501 L 381,500 L 381,499 L 381,498 L 381,497 L 381,496 L 381,495 L 381,494 L 382,493 L 382,492 L 382,491 L 382,490 L 382,489 L 382,488 L 382,487 L 382,486 L 383,485 L 383,484 L 383,483 L 383,482 L 383,481 L 383,480 L 383,479 L 384,478 L 384,477 L 384,476 L 384,475 L 385,474 L 385,473 L 385,472 L 386,471 L 386,470 L 386,469 L 387,468 L 387,467 L 387,466 L 388,465 L 388,464 L 389,463 L 389,462 L 390,461 L 390,460 L 391,459 L 391,458 L 391,457 L 392,456 L 393,455 L 393,454 L 394,453 L 394,452 L 395,451 L 395,450 L 396,449 L 397,448 L 397,447 L 398,446 L 399,445 L 399,444 L 399,443 L 399,442 L 399,441 L 399,440 L 399,439 L 399,438 L 399,437 L 399,436 L 399,435 L 399,434 L 399,433 L 399,432 L 399,431 L 399,430 L 399,429 L 399,428 L 399,427 L 399,426 L 399,425 L 399,424 L 399,423 L 399,422 L 398,422 L 397,422 L 396,422 L 395,422 L 394,422 L 393,422 L 392,422 L 391,422 L 390,422 L 389,422 L 388,422 L 387,422 L 386,422 L 385,422 L 384,421 L 383,421 L 382,421 L 381,421 L 380,421 L 379,421 L 378,421 L 377,421 L 376,422 L 375,422 L 374,422 L 373,422 L 372,422 L 371,422 L 370,422 L 369,422 L 368,422 L 367,422 L 366,422 L 365,422 L 364,421 Z M 419,374 L 419,375 L 420,376 L 419,377 L 419,378 L 420,379 L 420,380 L 420,381 L 420,382 L 420,383 L 420,384 L 419,385 L 419,386 L 419,387 L 419,388 L 419,389 L 419,390 L 419,391 L 419,392 L 419,393 L 419,394 L 419,395 L 419,396 L 419,397 L 419,398 L 419,399 L 419,400 L 419,401 L 419,402 L 419,403 L 419,404 L 419,405 L 419,406 L 419,407 L 419,408 L 419,409 L 419,410 L 419,411 L 419,412 L 419,413 L 419,414 L 419,415 L 419,416 L 420,417 L 420,418 L 420,419 L 420,420 L 420,421 L 420,422 L 419,423 L 419,424 L 420,424 L 421,424 L 422,423 L 423,422 L 424,422 L 425,421 L 426,421 L 427,420 L 428,419 L 429,419 L 430,418 L 431,418 L 432,417 L 433,417 L 434,417 L 435,416 L 436,415 L 437,415 L 438,414 L 439,414 L 440,413 L 441,413 L 442,413 L 443,413 L 444,412 L 445,412 L 446,412 L 447,411 L 448,411 L 449,411 L 450,411 L 451,410 L 452,410 L 453,410 L 454,410 L 455,409 L 456,409 L 457,409 L 457,408 L 457,407 L 457,406 L 457,405 L 457,404 L 457,403 L 457,402 L 457,401 L 457,400 L 457,399 L 457,398 L 457,397 L 457,396 L 457,395 L 457,394 L 457,393 L 457,392 L 457,391 L 457,390 L 457,389 L 457,388 L 457,387 L 457,386 L 457,385 L 457,384 L 457,383 L 457,382 L 457,381 L 457,380 L 457,379 L 457,378 L 457,377 L 457,376 L 457,375 L 457,374 L 456,374 L 455,374 L 454,374 L 453,374 L 452,374 L 451,374 L 450,374 L 449,374 L 448,374 L 447,374 L 446,374 L 445,374 L 444,374 L 443,374 L 442,374 L 441,374 L 440,374 L 439,374 L 438,374 L 437,374 L 436,374 L 435,374 L 434,374 L 433,374 L 432,374 L 431,374 L 430,374 L 429,374 L 428,374 L 427,374 L 426,374 L 425,374 L 424,374 L 423,374 L 422,374 L 421,374 L 420,374 Z M 1114,363 L 1114,364 L 1114,365 L 1114,366 L 1114,367 L 1114,368 L 1114,369 L 1114,370 L 1114,371 L 1114,372 L 1114,373 L 1114,374 L 1114,375 L 1114,376 L 1114,377 L 1114,378 L 1114,379 L 1114,380 L 1114,381 L 1114,382 L 1114,383 L 1114,384 L 1114,385 L 1114,386 L 1114,387 L 1114,388 L 1114,389 L 1114,390 L 1114,391 L 1114,392 L 1114,393 L 1114,394 L 1114,395 L 1114,396 L 1114,397 L 1114,398 L 1114,399 L 1114,400 L 1114,401 L 1114,402 L 1114,403 L 1114,404 L 1114,405 L 1114,406 L 1114,407 L 1114,408 L 1114,409 L 1114,410 L 1114,411 L 1114,412 L 1114,413 L 1114,414 L 1114,415 L 1114,416 L 1114,417 L 1114,418 L 1114,419 L 1114,420 L 1114,421 L 1114,422 L 1114,423 L 1114,424 L 1114,425 L 1114,426 L 1114,427 L 1114,428 L 1114,429 L 1114,430 L 1114,431 L 1114,432 L 1114,433 L 1114,434 L 1114,435 L 1114,436 L 1114,437 L 1114,438 L 1114,439 L 1114,440 L 1114,441 L 1114,442 L 1114,443 L 1114,444 L 1114,445 L 1114,446 L 1114,447 L 1114,448 L 1114,449 L 1114,450 L 1114,451 L 1114,452 L 1114,453 L 1114,454 L 1114,455 L 1114,456 L 1114,457 L 1114,458 L 1114,459 L 1114,460 L 1114,461 L 1114,462 L 1114,463 L 1114,464 L 1114,465 L 1114,466 L 1114,467 L 1114,468 L 1114,469 L 1114,470 L 1114,471 L 1114,472 L 1114,473 L 1114,474 L 1114,475 L 1114,476 L 1114,477 L 1114,478 L 1114,479 L 1114,480 L 1114,481 L 1114,482 L 1114,483 L 1114,484 L 1114,485 L 1114,486 L 1114,487 L 1114,488 L 1114,489 L 1114,490 L 1114,491 L 1114,492 L 1114,493 L 1115,493 L 1116,493 L 1117,493 L 1118,493 L 1119,493 L 1120,493 L 1121,493 L 1122,493 L 1123,493 L 1124,493 L 1125,493 L 1126,493 L 1127,493 L 1128,493 L 1129,493 L 1130,493 L 1131,493 L 1132,493 L 1133,493 L 1134,493 L 1135,493 L 1136,493 L 1137,493 L 1138,493 L 1139,493 L 1140,493 L 1141,493 L 1142,493 L 1142,492 L 1142,491 L 1142,490 L 1142,489 L 1142,488 L 1142,487 L 1142,486 L 1142,485 L 1142,484 L 1142,483 L 1142,482 L 1142,481 L 1142,480 L 1142,479 L 1142,478 L 1142,477 L 1142,476 L 1142,475 L 1142,474 L 1142,473 L 1142,472 L 1142,471 L 1142,470 L 1142,469 L 1142,468 L 1142,467 L 1142,466 L 1142,465 L 1142,464 L 1142,463 L 1142,462 L 1142,461 L 1142,460 L 1142,459 L 1142,458 L 1142,457 L 1142,456 L 1142,455 L 1142,454 L 1142,453 L 1142,452 L 1142,451 L 1142,450 L 1142,449 L 1142,448 L 1142,447 L 1142,446 L 1142,445 L 1142,444 L 1142,443 L 1142,442 L 1142,441 L 1142,440 L 1142,439 L 1143,438 L 1144,438 L 1145,438 L 1146,438 L 1147,438 L 1148,438 L 1149,438 L 1150,438 L 1151,438 L 1152,438 L 1153,438 L 1154,438 L 1155,438 L 1156,438 L 1157,438 L 1158,438 L 1159,438 L 1160,438 L 1161,438 L 1162,438 L 1163,438 L 1164,438 L 1165,438 L 1166,438 L 1167,438 L 1168,438 L 1169,438 L 1170,438 L 1171,438 L 1172,438 L 1173,438 L 1174,438 L 1175,438 L 1176,438 L 1177,438 L 1178,438 L 1179,438 L 1180,438 L 1181,438 L 1182,438 L 1183,438 L 1184,438 L 1185,438 L 1186,438 L 1187,438 L 1188,438 L 1189,438 L 1190,438 L 1191,438 L 1192,438 L 1193,438 L 1194,439 L 1194,440 L 1194,441 L 1194,442 L 1194,443 L 1194,444 L 1194,445 L 1194,446 L 1194,447 L 1194,448 L 1194,449 L 1194,450 L 1194,451 L 1194,452 L 1194,453 L 1194,454 L 1194,455 L 1194,456 L 1194,457 L 1194,458 L 1194,459 L 1194,460 L 1194,461 L 1194,462 L 1194,463 L 1194,464 L 1194,465 L 1194,466 L 1194,467 L 1194,468 L 1194,469 L 1194,470 L 1194,471 L 1194,472 L 1194,473 L 1194,474 L 1194,475 L 1194,476 L 1194,477 L 1194,478 L 1194,479 L 1194,480 L 1194,481 L 1194,482 L 1194,483 L 1194,484 L 1194,485 L 1194,486 L 1194,487 L 1194,488 L 1194,489 L 1194,490 L 1194,491 L 1194,492 L 1194,493 L 1195,493 L 1196,493 L 1197,493 L 1198,493 L 1199,493 L 1200,493 L 1201,493 L 1202,493 L 1203,493 L 1204,493 L 1205,493 L 1206,493 L 1207,493 L 1208,493 L 1209,493 L 1210,493 L 1211,493 L 1212,493 L 1213,493 L 1214,493 L 1215,493 L 1216,493 L 1217,493 L 1218,493 L 1219,493 L 1220,493 L 1221,493 L 1221,492 L 1221,491 L 1221,490 L 1221,489 L 1221,488 L 1221,487 L 1221,486 L 1221,485 L 1221,484 L 1221,483 L 1221,482 L 1221,481 L 1221,480 L 1221,479 L 1221,478 L 1221,477 L 1221,476 L 1221,475 L 1221,474 L 1221,473 L 1221,472 L 1221,471 L 1221,470 L 1221,469 L 1221,468 L 1221,467 L 1221,466 L 1221,465 L 1221,464 L 1221,463 L 1221,462 L 1221,461 L 1221,460 L 1221,459 L 1221,458 L 1221,457 L 1221,456 L 1221,455 L 1221,454 L 1221,453 L 1221,452 L 1221,451 L 1221,450 L 1221,449 L 1221,448 L 1221,447 L 1221,446 L 1221,445 L 1221,444 L 1221,443 L 1221,442 L 1221,441 L 1221,440 L 1221,439 L 1221,438 L 1221,437 L 1221,436 L 1221,435 L 1221,434 L 1221,433 L 1221,432 L 1221,431 L 1221,430 L 1221,429 L 1221,428 L 1221,427 L 1221,426 L 1221,425 L 1221,424 L 1221,423 L 1221,422 L 1221,421 L 1221,420 L 1221,419 L 1221,418 L 1221,417 L 1221,416 L 1221,415 L 1221,414 L 1221,413 L 1221,412 L 1221,411 L 1221,410 L 1221,409 L 1221,408 L 1221,407 L 1221,406 L 1221,405 L 1221,404 L 1221,403 L 1221,402 L 1221,401 L 1221,400 L 1221,399 L 1221,398 L 1221,397 L 1221,396 L 1221,395 L 1221,394 L 1221,393 L 1221,392 L 1221,391 L 1221,390 L 1221,389 L 1221,388 L 1221,387 L 1221,386 L 1221,385 L 1221,384 L 1221,383 L 1221,382 L 1221,381 L 1221,380 L 1221,379 L 1221,378 L 1221,377 L 1221,376 L 1221,375 L 1221,374 L 1221,373 L 1221,372 L 1221,371 L 1221,370 L 1221,369 L 1221,368 L 1221,367 L 1221,366 L 1221,365 L 1221,364 L 1220,364 L 1219,364 L 1218,364 L 1217,364 L 1216,364 L 1215,364 L 1214,364 L 1213,364 L 1212,364 L 1211,364 L 1210,364 L 1209,364 L 1208,364 L 1207,364 L 1206,364 L 1205,364 L 1204,364 L 1203,364 L 1202,364 L 1201,364 L 1200,364 L 1199,364 L 1198,364 L 1197,364 L 1196,364 L 1195,364 L 1194,364 L 1194,365 L 1194,366 L 1194,367 L 1194,368 L 1194,369 L 1194,370 L 1194,371 L 1194,372 L 1194,373 L 1194,374 L 1194,375 L 1194,376 L 1194,377 L 1194,378 L 1194,379 L 1194,380 L 1194,381 L 1194,382 L 1194,383 L 1194,384 L 1194,385 L 1194,386 L 1194,387 L 1194,388 L 1194,389 L 1194,390 L 1194,391 L 1194,392 L 1194,393 L 1194,394 L 1194,395 L 1194,396 L 1194,397 L 1194,398 L 1194,399 L 1194,400 L 1194,401 L 1194,402 L 1194,403 L 1194,404 L 1194,405 L 1194,406 L 1194,407 L 1194,408 L 1194,409 L 1194,410 L 1194,411 L 1194,412 L 1193,413 L 1192,413 L 1191,413 L 1190,413 L 1189,413 L 1188,413 L 1187,413 L 1186,413 L 1185,413 L 1184,413 L 1183,413 L 1182,413 L 1181,413 L 1180,413 L 1179,413 L 1178,413 L 1177,413 L 1176,413 L 1175,413 L 1174,413 L 1173,413 L 1172,413 L 1171,413 L 1170,413 L 1169,413 L 1168,413 L 1167,413 L 1166,413 L 1165,413 L 1164,413 L 1163,413 L 1162,413 L 1161,413 L 1160,413 L 1159,413 L 1158,413 L 1157,413 L 1156,413 L 1155,413 L 1154,413 L 1153,413 L 1152,413 L 1151,413 L 1150,413 L 1149,413 L 1148,413 L 1147,413 L 1146,413 L 1145,413 L 1144,413 L 1143,413 L 1142,412 L 1142,411 L 1142,410 L 1142,409 L 1142,408 L 1142,407 L 1142,406 L 1142,405 L 1142,404 L 1142,403 L 1142,402 L 1142,401 L 1142,400 L 1142,399 L 1142,398 L 1142,397 L 1142,396 L 1142,395 L 1142,394 L 1142,393 L 1142,392 L 1142,391 L 1142,390 L 1142,389 L 1142,388 L 1142,387 L 1142,386 L 1142,385 L 1142,384 L 1142,383 L 1142,382 L 1142,381 L 1142,380 L 1142,379 L 1142,378 L 1142,377 L 1142,376 L 1142,375 L 1142,374 L 1142,373 L 1142,372 L 1142,371 L 1142,370 L 1142,369 L 1142,368 L 1142,367 L 1142,366 L 1142,365 L 1142,364 L 1142,363 L 1141,363 L 1140,363 L 1139,363 L 1138,363 L 1137,363 L 1136,363 L 1135,363 L 1134,363 L 1133,363 L 1132,363 L 1131,363 L 1130,363 L 1129,363 L 1128,363 L 1127,363 L 1126,363 L 1125,363 L 1124,363 L 1123,363 L 1122,363 L 1121,363 L 1120,363 L 1119,363 L 1118,363 L 1117,363 L 1116,363 L 1115,363 Z M 886,363 L 886,364 L 886,365 L 885,366 L 885,367 L 885,368 L 884,369 L 884,370 L 884,371 L 883,372 L 883,373 L 882,374 L 882,375 L 882,376 L 881,377 L 881,378 L 881,379 L 880,380 L 880,381 L 879,382 L 879,383 L 879,384 L 878,385 L 878,386 L 878,387 L 877,388 L 877,389 L 876,390 L 876,391 L 876,392 L 875,393 L 875,394 L 875,395 L 874,396 L 874,397 L 874,398 L 873,399 L 873,400 L 873,401 L 872,402 L 872,403 L 871,404 L 871,405 L 870,406 L 870,407 L 870,408 L 869,409 L 869,410 L 869,411 L 868,412 L 868,413 L 868,414 L 867,415 L 867,416 L 867,417 L 866,418 L 866,419 L 865,420 L 865,421 L 865,422 L 864,423 L 864,424 L 864,425 L 863,426 L 863,427 L 862,428 L 862,429 L 862,430 L 861,431 L 861,432 L 860,433 L 860,434 L 860,435 L 859,436 L 859,437 L 859,438 L 858,439 L 858,440 L 858,441 L 857,442 L 857,443 L 856,444 L 856,445 L 856,446 L 855,447 L 855,448 L 855,449 L 854,450 L 854,451 L 853,452 L 853,453 L 853,454 L 852,455 L 852,456 L 852,457 L 851,458 L 851,459 L 851,460 L 850,461 L 850,462 L 849,463 L 849,464 L 849,465 L 848,466 L 848,467 L 848,468 L 847,469 L 847,470 L 847,471 L 846,472 L 846,473 L 845,474 L 845,475 L 845,476 L 844,477 L 844,478 L 843,479 L 843,480 L 843,481 L 842,482 L 842,483 L 842,484 L 841,485 L 841,486 L 840,487 L 840,488 L 840,489 L 839,490 L 839,491 L 839,492 L 839,493 L 840,493 L 841,493 L 842,493 L 843,493 L 844,493 L 845,493 L 846,493 L 847,493 L 848,493 L 849,493 L 850,493 L 851,493 L 852,493 L 853,493 L 854,493 L 855,493 L 856,493 L 857,493 L 858,493 L 859,493 L 860,493 L 861,493 L 862,493 L 863,493 L 864,493 L 865,493 L 866,493 L 866,492 L 867,491 L 867,490 L 868,489 L 868,488 L 868,487 L 869,486 L 869,485 L 869,484 L 870,483 L 870,482 L 870,481 L 871,480 L 871,479 L 872,478 L 872,477 L 872,476 L 873,475 L 873,474 L 873,473 L 874,472 L 874,471 L 874,470 L 875,469 L 875,468 L 876,467 L 877,466 L 878,466 L 879,466 L 880,466 L 881,466 L 882,466 L 883,466 L 884,466 L 885,466 L 886,466 L 887,466 L 888,466 L 889,466 L 890,466 L 891,466 L 892,466 L 893,466 L 894,466 L 895,466 L 896,466 L 897,466 L 898,466 L 899,466 L 900,466 L 901,466 L 902,466 L 903,466 L 904,466 L 905,466 L 906,466 L 907,466 L 908,466 L 909,466 L 910,466 L 911,466 L 912,466 L 913,466 L 914,466 L 915,466 L 916,466 L 917,466 L 918,466 L 919,466 L 920,466 L 921,466 L 922,466 L 923,466 L 924,466 L 925,466 L 926,466 L 927,466 L 928,466 L 929,467 L 929,468 L 929,469 L 929,470 L 930,471 L 930,472 L 931,473 L 931,474 L 931,475 L 932,476 L 932,477 L 933,478 L 933,479 L 933,480 L 934,481 L 934,482 L 934,483 L 935,484 L 935,485 L 936,486 L 936,487 L 936,488 L 937,489 L 937,490 L 937,491 L 938,492 L 938,493 L 939,493 L 940,493 L 941,493 L 942,493 L 943,493 L 944,493 L 945,493 L 946,493 L 947,493 L 948,493 L 949,493 L 950,493 L 951,493 L 952,493 L 953,493 L 954,493 L 955,493 L 956,493 L 957,493 L 958,493 L 959,493 L 960,493 L 961,493 L 962,493 L 963,493 L 964,493 L 965,493 L 966,493 L 967,493 L 967,492 L 966,491 L 966,490 L 966,489 L 965,488 L 965,487 L 965,486 L 964,485 L 964,484 L 963,483 L 963,482 L 963,481 L 962,480 L 962,479 L 962,478 L 961,477 L 961,476 L 960,475 L 960,474 L 960,473 L 959,472 L 959,471 L 959,470 L 958,469 L 958,468 L 957,467 L 957,466 L 956,465 L 956,464 L 956,463 L 955,462 L 955,461 L 955,460 L 954,459 L 954,458 L 953,457 L 953,456 L 953,455 L 952,454 L 952,453 L 952,452 L 951,451 L 951,450 L 950,449 L 950,448 L 950,447 L 949,446 L 949,445 L 949,444 L 948,443 L 948,442 L 947,441 L 947,440 L 947,439 L 946,438 L 946,437 L 945,436 L 945,435 L 945,434 L 944,433 L 944,432 L 944,431 L 943,430 L 943,429 L 943,428 L 942,427 L 942,426 L 941,425 L 941,424 L 941,423 L 940,422 L 940,421 L 939,420 L 939,419 L 939,418 L 938,417 L 938,416 L 938,415 L 937,414 L 937,413 L 937,412 L 936,411 L 936,410 L 935,409 L 935,408 L 935,407 L 934,406 L 934,405 L 933,404 L 933,403 L 933,402 L 932,401 L 932,400 L 932,399 L 931,398 L 931,397 L 930,396 L 930,395 L 930,394 L 929,393 L 929,392 L 929,391 L 928,390 L 928,389 L 928,388 L 927,387 L 927,386 L 926,385 L 926,384 L 926,383 L 925,382 L 925,381 L 924,380 L 924,379 L 924,378 L 923,377 L 923,376 L 923,375 L 922,374 L 922,373 L 921,372 L 921,371 L 921,370 L 920,369 L 920,368 L 919,367 L 919,366 L 919,365 L 918,364 L 918,363 L 917,363 L 916,363 L 915,363 L 914,363 L 913,363 L 912,363 L 911,363 L 910,363 L 909,363 L 908,363 L 907,363 L 906,363 L 905,363 L 904,363 L 903,363 L 902,363 L 901,363 L 900,363 L 899,363 L 898,363 L 897,363 L 896,363 L 895,363 L 894,363 L 893,363 L 892,363 L 891,363 L 890,363 L 889,363 L 888,363 L 887,363 Z M 901,397 L 902,396 L 903,397 L 903,398 L 903,399 L 904,400 L 904,401 L 905,402 L 905,403 L 905,404 L 906,405 L 906,406 L 907,407 L 907,408 L 907,409 L 908,410 L 908,411 L 908,412 L 909,413 L 909,414 L 910,415 L 910,416 L 910,417 L 910,418 L 911,419 L 912,420 L 912,421 L 912,422 L 913,423 L 913,424 L 914,425 L 914,426 L 914,427 L 915,428 L 915,429 L 915,430 L 916,431 L 916,432 L 917,433 L 917,434 L 917,435 L 918,436 L 918,437 L 918,438 L 919,439 L 919,440 L 920,441 L 919,442 L 918,443 L 917,443 L 916,443 L 915,442 L 914,442 L 913,443 L 912,442 L 911,442 L 910,442 L 909,442 L 908,442 L 907,442 L 906,442 L 905,442 L 904,442 L 903,442 L 902,442 L 901,442 L 900,442 L 899,442 L 898,442 L 897,442 L 896,442 L 895,442 L 894,442 L 893,442 L 892,442 L 891,442 L 890,442 L 889,442 L 888,442 L 887,442 L 886,443 L 885,442 L 884,441 L 885,440 L 885,439 L 886,438 L 886,437 L 886,436 L 887,435 L 887,434 L 887,433 L 888,432 L 888,431 L 889,430 L 889,429 L 889,428 L 890,427 L 890,426 L 890,425 L 891,424 L 891,423 L 892,422 L 892,421 L 892,420 L 893,419 L 893,418 L 894,417 L 894,416 L 894,415 L 895,414 L 895,413 L 896,412 L 896,411 L 896,410 L 897,409 L 897,408 L 897,407 L 898,406 L 898,405 L 899,404 L 899,403 L 899,402 L 900,401 L 900,400 L 901,399 L 901,398 Z M 589,363 L 589,364 L 589,365 L 589,366 L 589,367 L 589,368 L 589,369 L 589,370 L 589,371 L 589,372 L 589,373 L 589,374 L 589,375 L 589,376 L 589,377 L 589,378 L 589,379 L 589,380 L 589,381 L 589,382 L 589,383 L 589,384 L 589,385 L 589,386 L 589,387 L 589,388 L 589,389 L 589,390 L 589,391 L 589,392 L 589,393 L 589,394 L 589,395 L 589,396 L 589,397 L 589,398 L 589,399 L 589,400 L 589,401 L 589,402 L 589,403 L 589,404 L 589,405 L 589,406 L 589,407 L 589,408 L 589,409 L 589,410 L 589,411 L 589,412 L 589,413 L 589,414 L 589,415 L 589,416 L 589,417 L 589,418 L 589,419 L 589,420 L 589,421 L 589,422 L 589,423 L 589,424 L 589,425 L 589,426 L 589,427 L 589,428 L 589,429 L 589,430 L 589,431 L 589,432 L 589,433 L 589,434 L 589,435 L 589,436 L 589,437 L 589,438 L 589,439 L 589,440 L 589,441 L 589,442 L 589,443 L 589,444 L 589,445 L 589,446 L 589,447 L 589,448 L 589,449 L 589,450 L 589,451 L 589,452 L 589,453 L 589,454 L 589,455 L 589,456 L 589,457 L 589,458 L 589,459 L 589,460 L 589,461 L 589,462 L 589,463 L 589,464 L 589,465 L 589,466 L 589,467 L 589,468 L 589,469 L 589,470 L 589,471 L 589,472 L 589,473 L 589,474 L 589,475 L 589,476 L 589,477 L 589,478 L 589,479 L 589,480 L 589,481 L 589,482 L 589,483 L 589,484 L 589,485 L 589,486 L 589,487 L 589,488 L 589,489 L 589,490 L 589,491 L 589,492 L 589,493 L 590,493 L 591,493 L 592,493 L 593,493 L 594,493 L 595,493 L 596,493 L 597,493 L 598,493 L 599,493 L 600,493 L 601,493 L 602,493 L 603,493 L 604,493 L 605,493 L 606,493 L 607,493 L 608,493 L 609,493 L 610,493 L 611,493 L 612,493 L 613,493 L 614,493 L 615,493 L 616,493 L 617,493 L 617,492 L 617,491 L 617,490 L 617,489 L 617,488 L 617,487 L 617,486 L 617,485 L 617,484 L 617,483 L 617,482 L 617,481 L 617,480 L 617,479 L 617,478 L 617,477 L 617,476 L 617,475 L 617,474 L 617,473 L 617,472 L 617,471 L 617,470 L 617,469 L 617,468 L 617,467 L 617,466 L 617,465 L 617,464 L 617,463 L 617,462 L 617,461 L 617,460 L 617,459 L 617,458 L 617,457 L 617,456 L 617,455 L 617,454 L 617,453 L 617,452 L 617,451 L 617,450 L 617,449 L 617,448 L 617,447 L 617,446 L 617,445 L 617,444 L 617,443 L 617,442 L 617,441 L 617,440 L 617,439 L 618,438 L 619,439 L 620,440 L 621,441 L 622,442 L 623,443 L 623,444 L 624,445 L 625,446 L 626,447 L 627,448 L 627,449 L 628,450 L 629,451 L 630,452 L 631,453 L 632,454 L 633,455 L 633,456 L 634,457 L 635,458 L 636,459 L 637,460 L 638,461 L 638,462 L 639,463 L 640,464 L 641,465 L 642,466 L 643,467 L 644,468 L 645,469 L 645,470 L 646,471 L 647,472 L 647,473 L 648,473 L 649,474 L 649,475 L 650,476 L 651,477 L 652,478 L 653,479 L 654,480 L 654,481 L 655,482 L 656,483 L 657,484 L 658,485 L 659,486 L 659,487 L 660,488 L 661,489 L 662,490 L 663,491 L 664,492 L 665,493 L 666,493 L 667,493 L 668,493 L 669,493 L 670,493 L 671,493 L 672,493 L 673,493 L 674,493 L 675,493 L 676,493 L 677,493 L 678,493 L 679,493 L 680,493 L 681,493 L 682,493 L 683,493 L 684,493 L 685,493 L 686,493 L 687,493 L 688,493 L 689,493 L 690,493 L 691,493 L 692,493 L 693,493 L 694,493 L 695,493 L 696,493 L 697,493 L 698,493 L 699,493 L 700,493 L 700,492 L 699,491 L 698,490 L 697,489 L 696,488 L 696,487 L 695,486 L 694,485 L 693,484 L 692,483 L 691,482 L 690,481 L 690,480 L 689,479 L 688,478 L 687,477 L 686,476 L 685,475 L 684,474 L 684,473 L 683,472 L 682,471 L 681,470 L 681,469 L 680,469 L 679,468 L 679,467 L 678,466 L 677,465 L 676,464 L 675,463 L 674,462 L 673,461 L 673,460 L 672,459 L 671,458 L 670,457 L 669,456 L 668,455 L 668,454 L 667,454 L 666,453 L 666,452 L 665,451 L 664,450 L 663,449 L 662,448 L 661,447 L 660,446 L 659,445 L 658,444 L 658,443 L 657,442 L 656,441 L 655,440 L 654,439 L 654,438 L 653,438 L 652,437 L 651,436 L 651,435 L 650,434 L 649,433 L 648,432 L 647,431 L 646,430 L 645,429 L 645,428 L 644,427 L 643,426 L 642,425 L 643,424 L 644,423 L 645,422 L 646,421 L 647,420 L 648,419 L 649,418 L 650,417 L 650,416 L 651,415 L 652,414 L 653,413 L 654,412 L 655,411 L 656,410 L 656,409 L 657,408 L 658,407 L 659,406 L 660,405 L 661,404 L 662,403 L 663,402 L 663,401 L 664,400 L 665,399 L 666,398 L 667,397 L 668,396 L 669,395 L 669,394 L 670,393 L 671,392 L 672,391 L 673,390 L 674,389 L 675,388 L 675,387 L 676,386 L 677,385 L 678,384 L 679,383 L 680,382 L 681,381 L 681,380 L 682,379 L 683,378 L 684,377 L 685,376 L 686,375 L 686,374 L 687,373 L 688,373 L 689,372 L 689,371 L 690,370 L 691,369 L 692,368 L 693,367 L 694,366 L 694,365 L 695,364 L 696,364 L 696,363 L 695,363 L 694,363 L 693,363 L 692,363 L 691,363 L 690,363 L 689,363 L 688,363 L 687,363 L 686,363 L 685,363 L 684,363 L 683,363 L 682,363 L 681,363 L 680,363 L 679,363 L 678,363 L 677,363 L 676,363 L 675,363 L 674,363 L 673,363 L 672,363 L 671,363 L 670,363 L 669,363 L 668,363 L 667,363 L 666,363 L 665,363 L 664,363 L 663,363 L 662,364 L 661,365 L 660,365 L 660,366 L 659,367 L 658,368 L 657,369 L 657,370 L 656,371 L 655,372 L 654,373 L 653,374 L 653,375 L 652,376 L 651,376 L 651,377 L 650,378 L 649,379 L 648,380 L 648,381 L 647,382 L 646,382 L 645,382 L 645,383 L 645,384 L 644,385 L 643,386 L 642,387 L 641,388 L 640,389 L 640,390 L 639,391 L 638,392 L 637,393 L 636,394 L 635,395 L 634,395 L 634,396 L 633,397 L 632,398 L 632,399 L 631,400 L 630,401 L 629,402 L 628,403 L 627,404 L 627,405 L 626,406 L 625,407 L 624,408 L 623,409 L 622,410 L 621,411 L 620,412 L 619,413 L 619,414 L 618,415 L 617,414 L 617,413 L 617,412 L 617,411 L 617,410 L 617,409 L 617,408 L 617,407 L 617,406 L 617,405 L 617,404 L 617,403 L 617,402 L 617,401 L 617,400 L 617,399 L 617,398 L 617,397 L 617,396 L 617,395 L 617,394 L 617,393 L 617,392 L 617,391 L 617,390 L 617,389 L 617,388 L 617,387 L 617,386 L 617,385 L 617,384 L 617,383 L 617,382 L 617,381 L 617,380 L 617,379 L 617,378 L 617,377 L 617,376 L 617,375 L 617,374 L 617,373 L 617,372 L 617,371 L 617,370 L 617,369 L 617,368 L 617,367 L 617,366 L 617,365 L 617,364 L 617,363 L 616,363 L 615,363 L 614,363 L 613,363 L 612,363 L 611,363 L 610,363 L 609,363 L 608,363 L 607,363 L 606,363 L 605,363 L 604,363 L 603,363 L 602,363 L 601,363 L 600,363 L 599,363 L 598,363 L 597,363 L 596,363 L 595,363 L 594,363 L 593,363 L 592,363 L 591,363 L 590,363 Z M 1032,362 L 1031,363 L 1030,363 L 1029,363 L 1028,363 L 1027,363 L 1026,363 L 1025,364 L 1024,364 L 1023,364 L 1022,364 L 1021,364 L 1020,365 L 1019,365 L 1018,365 L 1017,366 L 1016,366 L 1015,366 L 1014,366 L 1013,367 L 1012,367 L 1011,367 L 1010,368 L 1009,368 L 1008,369 L 1007,369 L 1006,370 L 1005,370 L 1004,371 L 1003,371 L 1002,372 L 1001,373 L 1000,373 L 999,374 L 998,375 L 997,375 L 996,376 L 995,377 L 994,377 L 993,378 L 992,379 L 991,380 L 990,380 L 990,381 L 989,382 L 988,383 L 987,384 L 986,385 L 985,386 L 984,387 L 984,388 L 983,389 L 982,390 L 982,391 L 981,392 L 980,393 L 980,394 L 979,395 L 979,396 L 978,397 L 978,398 L 977,399 L 977,400 L 976,401 L 976,402 L 976,403 L 975,404 L 975,405 L 974,406 L 974,407 L 974,408 L 973,409 L 973,410 L 973,411 L 973,412 L 972,413 L 972,414 L 972,415 L 972,416 L 972,417 L 972,418 L 971,419 L 971,420 L 971,421 L 971,422 L 971,423 L 971,424 L 971,425 L 971,426 L 971,427 L 971,428 L 971,429 L 971,430 L 971,431 L 971,432 L 971,433 L 971,434 L 971,435 L 971,436 L 971,437 L 971,438 L 972,439 L 972,440 L 972,441 L 972,442 L 972,443 L 972,444 L 973,445 L 973,446 L 973,447 L 973,448 L 974,449 L 974,450 L 974,451 L 975,452 L 975,453 L 975,454 L 976,455 L 976,456 L 977,457 L 977,458 L 977,459 L 978,460 L 978,461 L 979,462 L 980,463 L 980,464 L 981,465 L 981,466 L 982,467 L 982,468 L 983,469 L 984,470 L 985,471 L 986,472 L 986,473 L 987,474 L 988,475 L 989,476 L 990,477 L 991,478 L 992,479 L 993,480 L 994,480 L 995,481 L 996,482 L 997,483 L 998,483 L 999,484 L 1000,485 L 1001,485 L 1002,486 L 1003,486 L 1004,487 L 1005,488 L 1006,488 L 1007,489 L 1008,489 L 1009,489 L 1010,490 L 1011,490 L 1012,491 L 1013,491 L 1014,491 L 1015,492 L 1016,492 L 1017,492 L 1018,493 L 1019,493 L 1020,493 L 1021,493 L 1022,493 L 1023,494 L 1024,494 L 1025,494 L 1026,494 L 1027,494 L 1028,494 L 1029,494 L 1030,495 L 1031,495 L 1032,495 L 1033,495 L 1034,495 L 1035,495 L 1036,495 L 1037,495 L 1038,495 L 1039,495 L 1040,495 L 1041,495 L 1042,495 L 1043,495 L 1044,495 L 1045,495 L 1046,494 L 1047,494 L 1048,494 L 1049,494 L 1050,494 L 1051,494 L 1052,493 L 1053,493 L 1054,493 L 1055,493 L 1056,493 L 1057,492 L 1058,492 L 1059,492 L 1060,491 L 1061,491 L 1062,491 L 1063,491 L 1064,490 L 1065,490 L 1066,489 L 1067,489 L 1068,488 L 1069,488 L 1070,487 L 1071,487 L 1072,486 L 1073,485 L 1074,485 L 1075,484 L 1076,483 L 1077,483 L 1078,482 L 1079,481 L 1080,480 L 1081,480 L 1082,479 L 1083,478 L 1084,477 L 1085,476 L 1086,475 L 1087,474 L 1087,473 L 1088,472 L 1089,471 L 1090,470 L 1091,469 L 1091,468 L 1092,467 L 1092,466 L 1093,465 L 1094,464 L 1094,463 L 1093,463 L 1092,462 L 1091,462 L 1090,461 L 1089,461 L 1088,460 L 1087,460 L 1086,459 L 1085,458 L 1084,458 L 1083,457 L 1082,456 L 1081,456 L 1080,456 L 1079,455 L 1078,454 L 1077,454 L 1076,453 L 1075,453 L 1074,452 L 1073,452 L 1072,451 L 1071,451 L 1070,452 L 1069,453 L 1069,454 L 1068,455 L 1067,456 L 1067,457 L 1066,458 L 1065,459 L 1064,460 L 1063,461 L 1062,462 L 1061,463 L 1060,464 L 1059,464 L 1058,465 L 1057,465 L 1056,466 L 1055,466 L 1054,467 L 1053,467 L 1052,468 L 1051,468 L 1050,469 L 1049,469 L 1048,469 L 1047,469 L 1046,470 L 1045,470 L 1044,470 L 1043,470 L 1042,470 L 1041,470 L 1040,471 L 1039,471 L 1038,470 L 1037,470 L 1036,470 L 1035,470 L 1034,470 L 1033,470 L 1032,470 L 1031,470 L 1030,469 L 1029,469 L 1028,469 L 1027,469 L 1026,468 L 1025,468 L 1024,468 L 1023,468 L 1022,467 L 1021,467 L 1020,466 L 1019,466 L 1018,465 L 1017,464 L 1016,464 L 1015,463 L 1014,462 L 1013,461 L 1012,460 L 1011,459 L 1010,458 L 1009,457 L 1008,456 L 1007,455 L 1007,454 L 1006,453 L 1005,452 L 1005,451 L 1004,450 L 1004,449 L 1003,448 L 1003,447 L 1003,446 L 1002,445 L 1002,444 L 1001,443 L 1001,442 L 1001,441 L 1001,440 L 1001,439 L 1000,438 L 1000,437 L 1000,436 L 1000,435 L 1000,434 L 1000,433 L 1000,432 L 1000,431 L 1000,430 L 1000,429 L 1000,428 L 1000,427 L 1000,426 L 1000,425 L 1000,424 L 1000,423 L 1000,422 L 1000,421 L 1000,420 L 1001,419 L 1001,418 L 1001,417 L 1001,416 L 1001,415 L 1002,414 L 1002,413 L 1002,412 L 1003,411 L 1003,410 L 1004,409 L 1004,408 L 1005,407 L 1005,406 L 1006,405 L 1007,404 L 1007,403 L 1008,402 L 1009,401 L 1010,400 L 1011,399 L 1012,398 L 1013,397 L 1014,396 L 1015,395 L 1016,395 L 1017,394 L 1018,393 L 1019,393 L 1020,392 L 1021,392 L 1022,391 L 1023,391 L 1024,391 L 1025,390 L 1026,390 L 1027,389 L 1028,389 L 1029,389 L 1030,389 L 1031,389 L 1032,389 L 1033,388 L 1034,388 L 1035,388 L 1036,388 L 1037,388 L 1038,388 L 1039,388 L 1040,388 L 1041,388 L 1042,388 L 1043,389 L 1044,389 L 1045,389 L 1046,390 L 1047,390 L 1048,390 L 1049,390 L 1050,391 L 1051,391 L 1052,391 L 1053,392 L 1054,392 L 1055,393 L 1056,393 L 1057,394 L 1058,394 L 1059,395 L 1060,396 L 1060,397 L 1061,397 L 1062,398 L 1063,399 L 1064,400 L 1065,401 L 1066,402 L 1067,403 L 1067,404 L 1068,405 L 1069,406 L 1069,407 L 1070,408 L 1070,409 L 1071,409 L 1072,408 L 1073,408 L 1074,407 L 1075,407 L 1076,406 L 1077,405 L 1078,405 L 1079,404 L 1080,404 L 1081,403 L 1082,403 L 1083,402 L 1084,402 L 1085,401 L 1086,400 L 1087,400 L 1088,399 L 1089,399 L 1090,398 L 1091,398 L 1092,397 L 1093,396 L 1093,395 L 1093,394 L 1092,393 L 1092,392 L 1091,391 L 1091,390 L 1090,389 L 1089,388 L 1089,387 L 1088,386 L 1087,385 L 1087,384 L 1086,384 L 1085,383 L 1085,382 L 1084,381 L 1083,380 L 1082,379 L 1081,378 L 1080,377 L 1079,377 L 1078,376 L 1077,375 L 1076,374 L 1075,374 L 1074,373 L 1073,372 L 1072,372 L 1071,371 L 1070,370 L 1069,370 L 1068,369 L 1067,369 L 1066,368 L 1065,368 L 1064,368 L 1063,367 L 1062,367 L 1061,366 L 1060,366 L 1059,366 L 1058,365 L 1057,365 L 1056,365 L 1055,365 L 1054,364 L 1053,364 L 1052,364 L 1051,364 L 1050,363 L 1049,363 L 1048,363 L 1047,363 L 1046,363 L 1045,363 L 1044,363 L 1043,363 L 1042,363 L 1041,363 L 1040,362 L 1039,362 L 1038,362 L 1037,362 L 1036,362 L 1035,362 L 1034,362 L 1033,362 Z M 758,362 L 757,363 L 756,363 L 755,363 L 754,363 L 753,363 L 752,363 L 751,363 L 750,363 L 749,364 L 748,364 L 747,364 L 746,364 L 745,364 L 744,365 L 743,365 L 742,365 L 741,366 L 740,366 L 739,366 L 738,366 L 737,367 L 736,367 L 735,368 L 734,368 L 733,369 L 732,369 L 731,370 L 730,370 L 729,371 L 728,371 L 727,372 L 726,373 L 725,373 L 724,374 L 723,375 L 722,375 L 721,376 L 720,377 L 719,377 L 719,378 L 718,379 L 717,379 L 716,380 L 715,381 L 714,382 L 713,383 L 713,384 L 712,385 L 711,385 L 711,386 L 710,387 L 709,388 L 708,389 L 708,390 L 707,391 L 706,392 L 705,393 L 705,394 L 704,395 L 704,396 L 703,397 L 703,398 L 702,399 L 702,400 L 701,401 L 701,402 L 701,403 L 700,404 L 700,405 L 700,406 L 699,407 L 699,408 L 699,409 L 698,410 L 698,411 L 698,412 L 698,413 L 697,414 L 697,415 L 697,416 L 697,417 L 696,418 L 696,419 L 696,420 L 696,421 L 696,422 L 696,423 L 696,424 L 696,425 L 696,426 L 696,427 L 696,428 L 696,429 L 696,430 L 696,431 L 696,432 L 696,433 L 696,434 L 696,435 L 696,436 L 696,437 L 697,438 L 697,439 L 697,440 L 697,441 L 697,442 L 697,443 L 698,444 L 698,445 L 698,446 L 698,447 L 699,448 L 699,449 L 699,450 L 700,451 L 700,452 L 700,453 L 701,454 L 701,455 L 701,456 L 702,457 L 702,458 L 702,459 L 703,460 L 704,461 L 704,462 L 705,463 L 706,464 L 706,465 L 707,466 L 708,467 L 708,468 L 709,469 L 710,470 L 711,471 L 711,472 L 711,473 L 712,473 L 713,474 L 714,475 L 715,476 L 716,477 L 717,478 L 718,479 L 719,480 L 720,480 L 721,481 L 722,482 L 723,482 L 724,483 L 725,484 L 726,484 L 727,485 L 728,485 L 729,486 L 730,487 L 731,487 L 732,488 L 733,488 L 734,489 L 735,489 L 736,489 L 737,490 L 738,490 L 739,491 L 740,491 L 741,491 L 742,492 L 743,492 L 744,492 L 745,493 L 746,493 L 747,493 L 748,493 L 749,493 L 750,494 L 751,494 L 752,494 L 753,494 L 754,494 L 755,495 L 756,495 L 757,495 L 758,495 L 759,495 L 760,495 L 761,495 L 762,495 L 763,495 L 764,495 L 765,495 L 766,495 L 767,495 L 768,495 L 769,495 L 770,495 L 771,495 L 772,495 L 773,495 L 774,495 L 775,494 L 776,494 L 777,494 L 778,494 L 779,494 L 780,494 L 781,493 L 782,493 L 783,493 L 784,493 L 785,492 L 786,492 L 787,492 L 788,491 L 789,491 L 790,491 L 791,490 L 792,490 L 793,489 L 794,489 L 795,489 L 796,488 L 797,487 L 798,487 L 799,487 L 800,486 L 801,486 L 802,485 L 803,484 L 804,484 L 805,483 L 806,482 L 807,481 L 808,481 L 809,480 L 810,479 L 811,478 L 812,478 L 812,477 L 813,476 L 814,475 L 815,474 L 816,473 L 817,472 L 818,471 L 818,470 L 819,469 L 820,468 L 821,467 L 821,466 L 822,465 L 823,464 L 823,463 L 823,462 L 824,461 L 825,460 L 825,459 L 826,458 L 826,457 L 826,456 L 827,455 L 827,454 L 827,453 L 828,452 L 828,451 L 829,450 L 829,449 L 829,448 L 829,447 L 829,446 L 830,445 L 830,444 L 830,443 L 830,442 L 830,441 L 830,440 L 831,439 L 831,438 L 831,437 L 831,436 L 831,435 L 831,434 L 831,433 L 831,432 L 831,431 L 831,430 L 831,429 L 831,428 L 831,427 L 831,426 L 831,425 L 831,424 L 831,423 L 831,422 L 831,421 L 831,420 L 830,419 L 830,418 L 830,417 L 830,416 L 830,415 L 830,414 L 829,413 L 829,412 L 829,411 L 829,410 L 828,409 L 828,408 L 828,407 L 827,406 L 827,405 L 827,404 L 826,403 L 826,402 L 826,401 L 826,400 L 825,399 L 824,398 L 824,397 L 823,396 L 823,395 L 822,394 L 821,393 L 821,392 L 820,391 L 819,390 L 819,389 L 818,388 L 817,387 L 816,386 L 815,385 L 815,384 L 814,383 L 813,382 L 812,381 L 811,380 L 810,380 L 809,379 L 808,378 L 807,377 L 806,376 L 805,375 L 804,375 L 803,374 L 802,373 L 801,373 L 800,372 L 799,372 L 798,371 L 797,371 L 796,370 L 795,370 L 794,369 L 793,369 L 792,368 L 791,368 L 790,367 L 789,367 L 788,367 L 787,366 L 786,366 L 785,366 L 784,365 L 783,365 L 782,365 L 781,365 L 780,364 L 779,364 L 778,364 L 777,364 L 776,363 L 775,363 L 774,363 L 773,363 L 772,363 L 771,363 L 770,363 L 769,363 L 768,363 L 767,362 L 766,362 L 765,362 L 764,362 L 763,362 L 762,362 L 761,362 L 760,362 L 759,362 Z M 756,389 L 757,388 L 758,388 L 759,388 L 760,388 L 761,388 L 762,388 L 763,388 L 764,388 L 765,388 L 766,388 L 767,388 L 768,388 L 769,388 L 770,388 L 771,388 L 772,389 L 773,389 L 774,389 L 775,389 L 776,389 L 777,390 L 778,390 L 779,391 L 780,391 L 781,392 L 782,392 L 783,393 L 784,393 L 785,394 L 786,395 L 787,396 L 788,396 L 789,397 L 790,398 L 791,399 L 792,400 L 793,401 L 794,402 L 795,403 L 795,404 L 796,405 L 797,406 L 797,407 L 798,408 L 798,409 L 799,410 L 799,411 L 800,412 L 800,413 L 800,414 L 801,415 L 801,416 L 801,417 L 802,418 L 802,419 L 802,420 L 802,421 L 802,422 L 802,423 L 802,424 L 803,425 L 803,426 L 803,427 L 803,428 L 803,429 L 803,430 L 803,431 L 803,432 L 803,433 L 803,434 L 802,435 L 802,436 L 802,437 L 802,438 L 802,439 L 802,440 L 801,441 L 801,442 L 801,443 L 801,444 L 800,445 L 800,446 L 799,447 L 799,448 L 799,449 L 798,450 L 797,451 L 797,452 L 796,453 L 796,454 L 795,455 L 794,456 L 793,457 L 792,458 L 792,459 L 791,460 L 790,460 L 789,461 L 788,462 L 787,463 L 786,464 L 785,464 L 784,465 L 783,465 L 782,466 L 781,467 L 780,467 L 779,467 L 778,468 L 777,468 L 776,469 L 775,469 L 774,469 L 773,469 L 772,470 L 771,470 L 770,470 L 769,470 L 768,470 L 767,470 L 766,471 L 765,470 L 764,470 L 763,471 L 762,471 L 761,470 L 760,470 L 759,470 L 758,470 L 757,470 L 756,470 L 755,469 L 754,469 L 753,469 L 752,469 L 751,468 L 750,468 L 749,467 L 748,467 L 747,466 L 746,466 L 745,465 L 744,465 L 743,464 L 742,464 L 741,463 L 740,462 L 739,462 L 738,461 L 737,460 L 736,459 L 735,458 L 734,457 L 734,456 L 733,455 L 732,454 L 731,453 L 731,452 L 730,451 L 730,450 L 729,449 L 728,448 L 728,447 L 728,446 L 727,445 L 727,444 L 726,443 L 726,442 L 726,441 L 726,440 L 726,439 L 725,438 L 725,437 L 725,436 L 725,435 L 724,434 L 724,433 L 725,432 L 725,431 L 725,430 L 724,429 L 724,428 L 725,427 L 725,426 L 725,425 L 725,424 L 725,423 L 725,422 L 725,421 L 725,420 L 725,419 L 726,418 L 726,417 L 726,416 L 726,415 L 727,414 L 727,413 L 727,412 L 728,411 L 728,410 L 729,409 L 729,408 L 730,407 L 730,406 L 731,405 L 732,404 L 732,403 L 733,402 L 734,401 L 735,400 L 736,399 L 737,398 L 738,397 L 739,396 L 740,396 L 741,395 L 742,394 L 743,393 L 744,393 L 745,392 L 746,392 L 747,391 L 748,391 L 749,390 L 750,390 L 751,390 L 752,389 L 753,389 L 754,389 L 755,389 Z M 478,329 L 478,330 L 478,331 L 478,332 L 478,333 L 478,334 L 478,335 L 478,336 L 478,337 L 478,338 L 478,339 L 478,340 L 478,341 L 478,342 L 478,343 L 478,344 L 478,345 L 478,346 L 478,347 L 478,348 L 478,349 L 478,350 L 478,351 L 478,352 L 478,353 L 478,354 L 478,355 L 478,356 L 478,357 L 478,358 L 478,359 L 478,360 L 478,361 L 478,362 L 478,363 L 478,364 L 478,365 L 478,366 L 478,367 L 478,368 L 478,369 L 478,370 L 478,371 L 478,372 L 478,373 L 478,374 L 478,375 L 478,376 L 478,377 L 478,378 L 478,379 L 478,380 L 478,381 L 478,382 L 478,383 L 478,384 L 478,385 L 478,386 L 478,387 L 478,388 L 478,389 L 478,390 L 478,391 L 478,392 L 478,393 L 478,394 L 478,395 L 478,396 L 478,397 L 478,398 L 478,399 L 478,400 L 478,401 L 478,402 L 478,403 L 478,404 L 478,405 L 478,406 L 478,407 L 478,408 L 479,408 L 480,408 L 481,408 L 482,409 L 483,409 L 484,409 L 485,409 L 486,409 L 487,409 L 488,409 L 489,410 L 490,410 L 491,410 L 492,410 L 493,410 L 494,411 L 495,411 L 496,411 L 497,411 L 498,412 L 499,412 L 500,413 L 501,413 L 502,414 L 503,414 L 504,414 L 505,414 L 506,415 L 507,415 L 508,416 L 509,416 L 510,417 L 511,418 L 512,418 L 513,418 L 514,419 L 515,419 L 515,418 L 515,417 L 515,416 L 515,415 L 515,414 L 515,413 L 515,412 L 515,411 L 515,410 L 515,409 L 515,408 L 515,407 L 515,406 L 515,405 L 515,404 L 515,403 L 515,402 L 515,401 L 515,400 L 515,399 L 515,398 L 515,397 L 515,396 L 515,395 L 515,394 L 515,393 L 515,392 L 515,391 L 515,390 L 515,389 L 515,388 L 515,387 L 515,386 L 515,385 L 515,384 L 515,383 L 515,382 L 515,381 L 515,380 L 515,379 L 515,378 L 515,377 L 515,376 L 515,375 L 515,374 L 515,373 L 515,372 L 515,371 L 515,370 L 515,369 L 515,368 L 515,367 L 515,366 L 515,365 L 515,364 L 515,363 L 515,362 L 515,361 L 515,360 L 515,359 L 515,358 L 515,357 L 515,356 L 515,355 L 515,354 L 515,353 L 515,352 L 515,351 L 515,350 L 515,349 L 515,348 L 515,347 L 515,346 L 515,345 L 515,344 L 515,343 L 515,342 L 515,341 L 515,340 L 515,339 L 515,338 L 515,337 L 515,336 L 515,335 L 515,334 L 515,333 L 515,332 L 515,331 L 515,330 L 515,329 L 514,329 L 513,329 L 512,329 L 511,329 L 510,329 L 509,329 L 508,329 L 507,329 L 506,329 L 505,329 L 504,329 L 503,329 L 502,329 L 501,329 L 500,329 L 499,329 L 498,329 L 497,329 L 496,329 L 495,329 L 494,329 L 493,329 L 492,329 L 491,329 L 490,329 L 489,329 L 488,329 L 487,329 L 486,329 L 485,329 L 484,329 L 483,329 L 482,329 L 481,329 L 480,329 L 479,329 Z" fill="#0A4A82" fill-rule="evenodd" /></svg>